{
  "accessors": [
    {
      "bufferView": 1,
      "componentType": 5126,
      "count": 70,
      "max": [
        0.07971753925085068,
        0.15398749709129333,
        0.04068763926625252
      ],
      "min": [
        -0.07971757650375366,
        0.0023556796368211508,
        1.3877787807814457e-17
      ],
      "type": "VEC3"
    },
    {
      "bufferView": 1,
      "byteOffset": 840,
      "componentType": 5126,
      "count": 70,
      "max": [
        0.9510565996170044,
        1.0,
        0.8654323220252991
      ],
      "min": [
        -0.9510564208030701,
        -0.8090171813964844,
        -1.0
      ],
      "type": "VEC3"
    },
    {
      "bufferView": 0,
      "componentType": 5125,
      "count": 84,
      "type": "SCALAR"
    }
  ],
  "asset": {
    "extras": {
      "author": "roberto.chiaveri (https://sketchfab.com/roberto.chiaveri)",
      "license": "CC-BY-4.0 (http://creativecommons.org/licenses/by/4.0/)",
      "source": "https://sketchfab.com/3d-models/gold-star-af2dff37037f4b49815690b0039f20e0",
      "title": "Gold Star"
    },
    "generator": "Sketchfab-14.59.0",
    "version": "2.0"
  },
  "bufferViews": [
    {
      "buffer": 0,
      "byteLength": 336,
      "name": "floatBufferViews",
      "target": 34963
    },
    {
      "buffer": 0,
      "byteLength": 1680,
      "byteOffset": 336,
      "byteStride": 12,
      "name": "floatBufferViews",
      "target": 34962
    }
  ],
  "buffers": [
    {
      "byteLength": 2016,
      "uri": "scene.bin"
    }
  ],
  "extensionsRequired": [
    "KHR_materials_pbrSpecularGlossiness"
  ],
  "extensionsUsed": [
    "KHR_materials_pbrSpecularGlossiness",
    "KHR_materials_emissive_strength"
  ],
  "materials": [
    {
      "extensions": {
        "KHR_materials_emissive_strength": {
          "emissiveStrength": 1.1
        },
        "KHR_materials_pbrSpecularGlossiness": {
          "diffuseFactor": [
            0.2580232220929358,
            0.20161373082683406,
            0.0464213168218714,
            1.0
          ],
          "glossinessFactor": 0.9432409698772415,
          "specularFactor": [
            0.3443381681080073,
            0.22634533759160588,
            0.07888107336226786
          ]
        }
      },
      "name": "Material6"
    }
  ],
  "meshes": [
    {
      "name": "Object_0",
      "primitives": [
        {
          "attributes": {
            "NORMAL": 1,
            "POSITION": 0
          },
          "indices": 2,
          "material": 0,
          "mode": 4
        }
      ]
    }
  ],
  "nodes": [
    {
      "children": [
        1
      ],
      "matrix": [
        1.0,
        0.0,
        0.0,
        0.0,
        0.0,
        2.220446049250313e-16,
        -1.0,
        0.0,
        0.0,
        1.0,
        2.220446049250313e-16,
        0.0,
        0.0,
        0.0,
        0.0,
        1.0
      ],
      "name": "Sketchfab_model"
    },
    {
      "children": [
        2
      ],
      "name": "root"
    },
    {
      "children": [
        3
      ],
      "matrix": [
        1.0,
        0.0,
        0.0,
        0.0,
        0.0,
        2.220446049250313e-16,
        1.0,
        0.0,
        0.0,
        -1.0,
        2.220446049250313e-16,
        0.0,
        0.0,
        0.0,
        0.0,
        1.0
      ],
      "name": "GLTF_SceneRootNode"
    },
    {
      "children": [
        4
      ],
      "name": "root_0"
    },
    {
      "children": [
        5
      ],
      "name": "Star_1"
    },
    {
      "mesh": 0,
      "name": "Object_5"
    }
  ],
  "scene": 0,
  "scenes": [
    {
      "name": "Sketchfab_Scene",
      "nodes": [
        0
      ]
    }
  ]
}
