<?xml version="1.0" standalone="no"?>
<!DOCTYPE svg PUBLIC "-//W3C//DTD SVG 20010904//EN"
 "http://www.w3.org/TR/2001/REC-SVG-20010904/DTD/svg10.dtd">
<svg version="1.0" xmlns="http://www.w3.org/2000/svg"
 width="500.000000pt" height="184.000000pt" viewBox="0 0 500.000000 184.000000"
 preserveAspectRatio="xMidYMid meet">

<g transform="translate(0.000000,184.000000) scale(0.100000,-0.100000)"
fill="#000000" stroke="none">
<path d="M805 1382 c-38 -27 -69 -54 -68 -60 2 -6 -4 -9 -11 -6 -15 6 -156
-83 -156 -97 0 -5 -4 -8 -9 -6 -16 4 -171 -105 -164 -116 4 -6 0 -8 -9 -5 -14
6 -72 -24 -65 -33 2 -2 7 -18 10 -35 4 -23 1 -33 -15 -43 -19 -12 -20 -11 -14
14 4 17 3 24 -4 20 -5 -3 -10 2 -11 12 0 16 -1 16 -9 -2 -6 -13 -9 -15 -9 -5
-1 9 -4 11 -9 5 -4 -6 -18 -16 -32 -23 -36 -19 -90 -66 -66 -58 13 5 17 2 13
-9 -4 -9 6 -23 25 -36 30 -22 31 -22 44 -4 8 10 14 14 14 8 0 -7 -5 -15 -10
-18 -15 -9 -1 -27 16 -21 8 3 14 0 14 -7 0 -7 21 -25 48 -42 26 -16 158 -103
295 -192 136 -90 249 -163 252 -163 3 0 5 62 5 139 l0 138 -150 99 c-82 55
-149 102 -147 107 1 4 48 38 105 75 56 38 99 72 95 75 -3 4 1 7 10 7 10 0 33
10 52 23 l34 22 0 113 c0 80 -3 112 -12 112 -8 0 -8 3 1 9 8 4 12 18 10 30 -3
21 -7 19 -73 -27z m-140 -123 c11 -16 1 -19 -13 -3 -7 8 -8 14 -3 14 5 0 13
-5 16 -11z m39 -24 c-4 -8 -8 -15 -10 -15 -2 0 -4 7 -4 15 0 8 4 15 10 15 5 0
7 -7 4 -15z m151 -25 c3 -5 1 -10 -4 -10 -6 0 -11 5 -11 10 0 6 2 10 4 10 3 0
8 -4 11 -10z m-190 -18 c-3 -3 -11 0 -18 7 -9 10 -8 11 6 5 10 -3 15 -9 12
-12z m-128 -34 c-3 -8 -6 -5 -6 6 -1 11 2 17 5 13 3 -3 4 -12 1 -19z m20 -30
c-3 -8 -6 -5 -6 6 -1 11 2 17 5 13 3 -3 4 -12 1 -19z m60 0 c-3 -8 -6 -5 -6 6
-1 11 2 17 5 13 3 -3 4 -12 1 -19z m80 -60 c-3 -8 -6 -5 -6 6 -1 11 2 17 5 13
3 -3 4 -12 1 -19z m-280 -30 c-3 -8 -6 -5 -6 6 -1 11 2 17 5 13 3 -3 4 -12 1
-19z m-174 -50 c-4 -7 -8 -16 -8 -20 0 -14 -15 -21 -15 -7 0 8 5 20 12 27 16
16 21 15 11 0z m43 -25 c-11 -11 -19 6 -11 24 8 17 8 17 12 0 3 -10 2 -21 -1
-24z m-26 -23 c0 -5 -2 -10 -4 -10 -3 0 -8 5 -11 10 -3 6 -1 10 4 10 6 0 11
-4 11 -10z"/>
<path d="M4131 1287 c-1 -131 1 -145 18 -153 10 -5 80 -49 154 -98 118 -78
135 -92 126 -108 -5 -10 -13 -17 -17 -15 -13 4 -101 -57 -95 -67 3 -5 2 -6 -4
-3 -11 7 -83 -39 -83 -54 0 -6 -4 -7 -10 -4 -5 3 -10 1 -10 -4 0 -6 -4 -10 -9
-9 -6 2 -24 -6 -40 -17 l-30 -20 0 -112 c1 -64 5 -110 10 -107 5 3 9 0 9 -5 0
-6 -4 -11 -10 -11 -5 0 -10 -10 -10 -21 0 -18 2 -19 15 -9 8 7 15 9 15 6 0 -4
14 2 30 14 17 12 30 29 30 38 0 15 2 15 10 2 6 -10 10 -11 10 -3 0 7 3 12 8
11 4 -1 21 6 37 17 129 82 155 101 155 111 0 7 8 12 18 11 16 -1 72 30 72 40
0 2 -5 1 -12 -3 -7 -4 -8 -3 -4 5 4 6 11 9 16 6 20 -12 60 27 61 59 l1 31 7
-30 c6 -28 7 -29 18 -10 6 11 15 20 20 20 4 0 7 4 5 9 -2 5 4 6 12 3 36 -14
41 54 7 80 -9 6 -12 15 -8 19 4 5 12 2 17 -6 7 -12 11 -12 26 1 16 12 17 12
11 -3 -4 -12 -2 -15 7 -12 8 3 17 1 21 -5 3 -6 13 -11 21 -11 24 0 111 64 106
78 -3 10 -7 10 -20 0 -9 -7 -13 -8 -10 -3 4 6 4 16 0 22 -14 21 -334 223 -344
217 -6 -4 -8 -3 -5 2 5 8 -121 104 -137 104 -3 0 -26 16 -52 35 -25 19 -50 33
-54 30 -5 -3 -13 3 -19 12 -5 10 -27 28 -49 41 l-40 22 -1 -143z m146 -43 c-3
-3 -12 -4 -19 -1 -8 3 -5 6 6 6 11 1 17 -2 13 -5z m210 -126 c-3 -8 -6 -5 -6
6 -1 11 2 17 5 13 3 -3 4 -12 1 -19z m-24 -83 c-3 -9 -8 -14 -10 -11 -3 3 -2
9 2 15 9 16 15 13 8 -4z m67 -16 c0 -5 -4 -9 -10 -9 -5 0 -10 7 -10 16 0 8 5
12 10 9 6 -3 10 -10 10 -16z m201 -23 c-14 -36 -22 -33 -9 5 6 16 12 28 14 26
3 -2 0 -16 -5 -31z m-101 -16 c0 -5 -8 -10 -17 -10 -15 0 -16 2 -3 10 19 12
20 12 20 0z m110 -24 c0 -3 -4 -8 -10 -11 -5 -3 -10 -1 -10 4 0 6 5 11 10 11
6 0 10 -2 10 -4z m28 -18 c-2 -7 3 -12 10 -10 6 1 12 -3 12 -10 0 -6 7 -3 16
8 14 18 15 18 4 -3 -6 -13 -18 -23 -26 -23 -9 0 -12 -5 -8 -12 4 -7 3 -8 -5
-4 -6 4 -9 11 -6 16 3 5 -1 15 -9 23 -8 8 -12 17 -9 21 11 10 23 7 21 -6z
m-138 -8 c0 -5 -8 -10 -17 -10 -15 0 -16 2 -3 10 19 12 20 12 20 0z m-107 -20
c-3 -11 -7 -20 -9 -20 -2 0 -4 9 -4 20 0 11 4 20 9 20 5 0 7 -9 4 -20z m44 4
c-3 -3 -12 -4 -19 -1 -8 3 -5 6 6 6 11 1 17 -2 13 -5z m174 -7 c-1 -12 -15 -9
-19 4 -3 6 1 10 8 8 6 -3 11 -8 11 -12z m-151 -21 c0 -11 -19 -15 -25 -6 -3 5
1 10 9 10 9 0 16 -2 16 -4z m45 -46 c3 -5 1 -10 -4 -10 -6 0 -11 5 -11 10 0 6
2 10 4 10 3 0 8 -4 11 -10z m-95 -30 c5 0 7 -7 3 -15 -8 -21 -17 -10 -19 23
-1 15 0 19 3 10 2 -10 8 -18 13 -18z m-210 0 c0 -5 -4 -10 -10 -10 -5 0 -10 5
-10 10 0 6 5 10 10 10 6 0 10 -4 10 -10z m150 0 c0 -5 -4 -10 -10 -10 -5 0
-10 5 -10 10 0 6 5 10 10 10 6 0 10 -4 10 -10z m-20 -56 c-6 -6 -7 -14 -3 -17
3 -4 1 -7 -5 -7 -16 0 -15 30 1 31 9 0 9 2 -1 6 -6 2 -9 9 -6 15 4 6 9 5 15
-3 4 -7 4 -18 -1 -25z m-63 -16 c-3 -7 -5 -2 -5 12 0 14 2 19 5 13 2 -7 2 -19
0 -25z m110 13 c1 -14 -3 -17 -18 -14 -18 5 -19 6 -2 19 10 7 18 14 18 14 1 0
1 -8 2 -19z m-85 -23 c-7 -7 -12 -8 -12 -2 0 14 12 26 19 19 2 -3 -1 -11 -7
-17z m-57 -38 c-3 -5 -1 -10 6 -10 7 0 10 -3 6 -6 -9 -9 -28 6 -22 17 4 5 8 9
11 9 3 0 2 -4 -1 -10z m-198 -32 c-3 -8 -6 -5 -6 6 -1 11 2 17 5 13 3 -3 4
-12 1 -19z m49 -7 c18 15 18 2 0 -16 -16 -17 -26 -9 -25 19 1 18 2 18 6 3 4
-14 8 -16 19 -6z m114 -1 c0 -11 -4 -20 -9 -20 -5 0 -7 9 -4 20 3 11 7 20 9
20 2 0 4 -9 4 -20z m-60 -64 c0 -2 -7 -7 -16 -10 -8 -3 -12 -2 -9 4 6 10 25
14 25 6z m-76 -22 c3 -8 2 -12 -4 -9 -6 3 -10 10 -10 16 0 14 7 11 14 -7z
m-14 -18 c0 -3 -4 -8 -10 -11 -5 -3 -10 -1 -10 4 0 6 5 11 10 11 6 0 10 -2 10
-4z"/>
<path d="M3810 1374 c0 -3 -41 -166 -91 -361 -49 -195 -88 -358 -85 -361 3 -3
6 3 7 14 0 17 1 17 16 -3 8 -13 21 -23 28 -23 7 0 20 -18 29 -40 l16 -40 59 0
c33 0 62 3 65 8 4 7 146 555 146 565 0 3 -16 1 -35 -3 -19 -4 -35 -4 -35 0 0
13 18 21 49 22 27 1 29 4 54 106 15 58 24 109 21 114 -6 9 -244 11 -244 2z
m140 -23 c0 -12 -29 -23 -41 -15 -18 10 -9 24 16 24 14 0 25 -4 25 -9z m-114
-78 c-3 -8 -2 -11 3 -8 5 3 12 1 16 -5 10 -15 35 -12 35 5 0 8 5 15 10 15 12
0 14 -27 3 -32 -19 -8 -43 -70 -54 -136 -13 -81 -29 -95 -29 -26 0 25 -4 43
-9 40 -12 -8 -24 43 -13 57 5 7 8 28 7 47 0 19 3 43 7 53 10 21 32 12 24 -10z
m-1 -333 c11 -19 -5 -30 -25 -18 -14 9 -16 14 -7 20 16 10 25 10 32 -2z m65
-45 c0 -18 -5 -25 -20 -25 -23 0 -24 4 -10 31 15 27 30 24 30 -6z m-98 -202
c6 -27 11 -49 10 -50 -12 -16 -34 17 -47 70 -6 21 -4 27 9 27 10 0 20 -16 28
-47z m-12 -63 c0 -5 -4 -10 -10 -10 -5 0 -10 5 -10 10 0 6 5 10 10 10 6 0 10
-4 10 -10z"/>
<path d="M1516 1308 c-10 -50 -28 -590 -20 -597 8 -6 354 6 361 13 2 1 4 36 5
77 l3 74 -114 3 -114 3 6 87 c4 48 9 146 13 218 l6 131 -23 6 c-13 4 -45 7
-71 7 -41 0 -48 -3 -52 -22z m48 -399 c-3 -5 -10 -7 -15 -3 -5 3 -7 10 -3 15
3 5 10 7 15 3 5 -3 7 -10 3 -15z m128 -131 c-9 -9 -12 -7 -12 12 0 19 3 21 12
12 9 -9 9 -15 0 -24z"/>
<path d="M2476 1321 c-3 -5 10 -8 29 -6 20 1 38 -2 41 -7 3 -4 -5 -8 -18 -9
-13 0 -18 -3 -11 -5 8 -4 6 -11 -7 -24 -15 -15 -20 -42 -26 -142 -4 -67 -9
-126 -10 -130 -1 -5 -2 -21 -3 -38 -1 -18 -6 -29 -13 -27 -15 2 -24 -211 -10
-225 14 -14 152 3 152 18 0 8 -8 14 -19 14 -26 0 -33 44 -10 63 9 9 20 13 23
10 3 -4 6 -1 6 6 0 7 -8 11 -17 9 -10 -1 -18 2 -19 7 0 6 9 9 20 7 20 -2 19
-1 -4 19 -22 19 -22 21 -5 17 18 -4 20 1 22 56 1 34 6 124 12 201 17 216 23
195 -58 195 -39 0 -72 -4 -75 -9z m104 -286 c0 -8 -4 -15 -10 -15 -5 0 -7 7
-4 15 4 8 8 15 10 15 2 0 4 -7 4 -15z m-3 -105 c-1 -11 -7 -20 -14 -20 -14 0
-18 22 -6 33 12 13 22 7 20 -13z m-120 -32 c-3 -8 -6 -5 -6 6 -1 11 2 17 5 13
3 -3 4 -12 1 -19z m99 -13 c-8 -8 -16 -15 -19 -15 -2 0 -4 7 -4 15 0 8 9 15
19 15 17 0 18 -2 4 -15z"/>
<path d="M3341 1319 c-91 -5 -168 -12 -172 -16 -8 -9 -25 -230 -34 -444 -5
-117 -4 -147 7 -151 7 -2 99 0 203 6 l190 11 0 70 0 70 -127 -4 -128 -3 -1 23
c-1 25 1 52 5 56 1 2 50 10 109 20 l107 17 -1 40 -2 41 -7 -40 c-7 -38 -7 -37
-9 19 l-1 59 -92 -7 c-54 -4 -96 -12 -100 -19 -10 -16 -10 -7 3 51 l10 49 82
6 c46 4 103 10 129 13 l46 6 4 57 c5 72 2 81 -31 80 -14 -1 -100 -6 -190 -10z
m-74 -25 c-3 -3 -12 -4 -19 -1 -8 3 -5 6 6 6 11 1 17 -2 13 -5z m75 -41 c-10
-4 -8 -9 5 -20 16 -13 16 -13 -5 -3 -19 9 -21 14 -11 26 6 8 15 12 18 8 3 -4
0 -9 -7 -11z m49 -21 c-7 -2 -18 1 -23 6 -8 8 -4 9 13 5 13 -4 18 -8 10 -11z
m-44 -194 c-3 -8 -6 -5 -6 6 -1 11 2 17 5 13 3 -3 4 -12 1 -19z m-44 5 c-7 -2
-19 -2 -25 0 -7 3 -2 5 12 5 14 0 19 -2 13 -5z m-14 -84 c-20 -38 -44 -16 -34
32 l7 30 19 -22 c14 -16 16 -26 8 -40z m-25 -35 c4 -10 1 -14 -6 -12 -15 5
-23 28 -10 28 5 0 13 -7 16 -16z m-37 -36 c-3 -8 -6 -5 -6 6 -1 11 2 17 5 13
3 -3 4 -12 1 -19z m8 -129 c11 -16 1 -19 -13 -3 -7 8 -8 14 -3 14 5 0 13 -5
16 -11z m115 1 c0 -5 -4 -10 -10 -10 -5 0 -10 5 -10 10 0 6 5 10 10 10 6 0 10
-4 10 -10z m-130 -20 c0 -5 -4 -10 -10 -10 -5 0 -10 5 -10 10 0 6 5 10 10 10
6 0 10 -4 10 -10z"/>
<path d="M1164 1310 c-12 -4 -24 -14 -27 -22 -109 -265 -204 -548 -191 -569 3
-5 39 -9 79 -9 l74 0 14 47 c15 51 10 48 120 67 37 7 37 7 37 -27 0 -19 3 -49
6 -66 l7 -31 74 0 c54 0 75 4 79 14 3 8 -9 92 -26 187 -69 391 -81 419 -173
418 -29 0 -61 -4 -73 -9z m127 -64 c5 3 9 0 9 -6 0 -15 -23 -7 -26 8 -1 7 0 8
3 2 2 -5 9 -8 14 -4z m-73 -133 c0 -5 2 -15 5 -23 4 -8 10 -40 15 -72 l9 -56
-34 -4 c-19 -2 -36 -2 -38 1 -1 3 6 33 16 66 10 33 16 68 13 78 -3 9 -1 17 5
17 6 0 10 -3 9 -7z m-48 -100 c-16 -37 -34 -69 -40 -71 -7 -3 -5 11 6 34 9 22
21 54 27 72 6 17 16 32 23 32 8 0 3 -22 -16 -67z m130 -21 c1 -15 2 -15 14 1
14 18 15 17 21 -3 9 -27 6 -29 -26 -23 -20 4 -26 11 -26 29 0 26 17 23 17 -4z
m15 -52 c3 -5 1 -10 -4 -10 -6 0 -11 5 -11 10 0 6 2 10 4 10 3 0 8 -4 11 -10z
m-15 -40 c0 -5 -5 -10 -11 -10 -5 0 -7 5 -4 10 3 6 8 10 11 10 2 0 4 -4 4 -10z
m-174 -45 c-16 -17 -36 -20 -36 -6 0 8 17 16 43 20 5 0 2 -6 -7 -14z m232 7
c13 -9 19 -31 28 -102 l5 -45 -17 30 c-9 17 -23 35 -30 40 -8 6 -13 26 -11 47
2 40 4 43 25 30z m-294 -63 c-3 -5 -10 -7 -15 -3 -5 3 -7 10 -3 15 3 5 10 7
15 3 5 -3 7 -10 3 -15z"/>
<path d="M2118 1313 c-24 -6 -119 -239 -183 -450 -49 -161 -51 -153 44 -153
l79 0 7 39 c4 22 12 44 18 49 14 11 128 34 135 27 2 -2 7 -30 11 -62 l6 -58
74 -3 c41 -2 77 1 82 5 4 4 -8 94 -27 198 -70 397 -79 416 -179 414 -27 -1
-58 -3 -67 -6z m137 -73 c3 -5 1 -10 -4 -10 -6 0 -11 5 -11 10 0 6 2 10 4 10
3 0 8 -4 11 -10z m-82 -127 c-7 -2 -13 -9 -13 -14 0 -6 4 -8 9 -4 11 6 17 -12
26 -82 l7 -53 -36 0 c-41 0 -41 -1 -21 64 8 27 12 59 9 72 -5 19 -2 24 12 23
11 0 14 -3 7 -6z m-23 -37 c0 -4 -21 -57 -43 -108 -7 -16 -15 -28 -19 -28 -11
0 -10 7 6 43 7 18 19 47 26 65 7 17 16 32 21 32 5 0 9 -2 9 -4z m139 -87 c9
-27 8 -30 -5 -25 -9 3 -25 6 -36 6 -16 0 -18 3 -9 13 6 8 10 16 8 18 -1 2 4
-3 12 -11 12 -13 13 -12 8 8 -8 33 9 27 22 -9z m-25 -38 c11 -4 15 -10 10 -13
-5 -4 -18 0 -29 8 -20 15 -12 17 19 5z m74 -161 c9 -50 6 -84 -5 -52 -3 8 -18
27 -35 44 -23 23 -27 33 -17 44 6 7 9 20 6 28 -9 22 3 26 23 8 9 -9 22 -42 28
-72z m-268 60 c0 -5 -4 -10 -10 -10 -5 0 -10 5 -10 10 0 6 5 10 10 10 6 0 10
-4 10 -10z m-54 -57 c-10 -10 -19 5 -10 18 6 11 8 11 12 0 2 -7 1 -15 -2 -18z
m11 -19 c-3 -3 -12 -4 -19 -1 -8 3 -5 6 6 6 11 1 17 -2 13 -5z"/>
<path d="M2750 1308 c-35 -5 -67 -13 -70 -19 -6 -8 -15 -127 -37 -477 l-6
-103 69 3 69 3 5 90 c5 88 6 90 31 93 31 4 37 -3 86 -98 21 -41 42 -81 46 -87
6 -9 19 -6 50 14 80 51 79 49 55 99 -12 23 -25 41 -29 39 -4 -3 -6 1 -6 8 1 6
-7 29 -18 50 l-19 38 27 25 c15 14 24 30 21 36 -4 6 -3 8 3 5 14 -9 23 15 24
66 1 39 2 40 8 12 7 -29 7 -28 13 15 12 81 -13 148 -65 180 -36 22 -138 25
-257 8z m107 -70 c-3 -8 -6 -5 -6 6 -1 11 2 17 5 13 3 -3 4 -12 1 -19z m73
-82 c0 -45 -40 -92 -91 -107 -21 -7 -42 -9 -45 -6 -4 4 -3 35 2 69 10 68 18
75 97 77 36 1 37 0 37 -33z m130 -6 c0 -5 -2 -10 -4 -10 -3 0 -8 5 -11 10 -3
6 -1 10 4 10 6 0 11 -4 11 -10z m-117 -65 c-3 -9 -8 -14 -10 -11 -3 3 -2 9 2
15 9 16 15 13 8 -4z m-213 -5 c0 -5 -4 -10 -10 -10 -5 0 -10 5 -10 10 0 6 5
10 10 10 6 0 10 -4 10 -10z m194 -61 c-2 -4 1 -9 8 -11 9 -3 9 -6 0 -12 -8 -5
-17 5 -27 28 -20 47 -19 56 4 26 11 -13 18 -28 15 -31z m11 -49 c3 -5 1 -10
-4 -10 -6 0 -11 5 -11 10 0 6 2 10 4 10 3 0 8 -4 11 -10z m100 -170 c-3 -5
-12 -10 -18 -10 -7 0 -6 4 3 10 19 12 23 12 15 0z"/>
<path d="M2457 1173 c-8 -115 -9 -198 -2 -192 6 7 19 289 13 289 -3 0 -8 -44
-11 -97z"/>
<path d="M2582 791 c-11 -7 -11 -9 0 -14 9 -3 15 1 15 9 0 8 -1 14 -1 14 -1 0
-7 -4 -14 -9z"/>
<path d="M3616 610 c-8 -43 -2 -50 44 -50 l40 0 -17 35 c-9 20 -22 34 -29 31
-6 -2 -16 0 -21 5 -7 7 -12 -1 -17 -21z"/>
</g>
</svg>
