<?xml version="1.0" encoding="UTF-8"?>
<!DOCTYPE svg PUBLIC "-//W3C//DTD SVG 1.1//EN" "http://www.w3.org/Graphics/SVG/1.1/DTD/svg11.dtd">
<svg xmlns="http://www.w3.org/2000/svg" version="1.1" width="500px" height="500px" style="shape-rendering:geometricPrecision; text-rendering:geometricPrecision; image-rendering:optimizeQuality; fill-rule:evenodd; clip-rule:evenodd" xmlns:xlink="http://www.w3.org/1999/xlink">
<g><path style="opacity:0.286" fill="#bfbfbf" d="M 60.5,61.5 C 63.6274,60.1851 66.6274,60.5185 69.5,62.5C 66.5176,62.0371 63.5176,61.7038 60.5,61.5 Z"/></g>
<g><path style="opacity:1" fill="#151515" d="M 60.5,61.5 C 63.5176,61.7038 66.5176,62.0371 69.5,62.5C 71.5145,63.9238 73.8478,64.5905 76.5,64.5C 87.1043,66.9278 97.4377,69.9278 107.5,73.5C 109.515,74.9238 111.848,75.5905 114.5,75.5C 116.515,76.9238 118.848,77.5905 121.5,77.5C 123.515,78.9238 125.848,79.5905 128.5,79.5C 130.515,80.9238 132.848,81.5905 135.5,81.5C 146.104,83.9278 156.438,86.9278 166.5,90.5C 168.515,91.9238 170.848,92.5905 173.5,92.5C 175.515,93.9238 177.848,94.5905 180.5,94.5C 182.515,95.9238 184.848,96.5905 187.5,96.5C 189.515,97.9238 191.848,98.5905 194.5,98.5C 202.78,100.233 210.78,102.566 218.5,105.5C 220.515,106.924 222.848,107.59 225.5,107.5C 227.515,108.924 229.848,109.59 232.5,109.5C 235.152,109.41 237.485,110.076 239.5,111.5C 242.55,113.101 245.884,114.101 249.5,114.5C 260.437,116.898 271.103,119.898 281.5,123.5C 283.515,124.924 285.848,125.59 288.5,125.5C 288.833,125.5 289.167,125.5 289.5,125.5C 291.102,127.074 293.102,127.741 295.5,127.5C 297.214,128.738 299.214,129.405 301.5,129.5C 312.437,131.898 323.103,134.898 333.5,138.5C 335.515,139.924 337.848,140.59 340.5,140.5C 342.515,141.924 344.848,142.59 347.5,142.5C 350.152,142.41 352.485,143.076 354.5,144.5C 356.214,145.738 358.214,146.405 360.5,146.5C 366.769,147.565 372.769,149.231 378.5,151.5C 380.515,152.924 382.848,153.59 385.5,153.5C 387.515,154.924 389.848,155.59 392.5,155.5C 394.515,156.924 396.848,157.59 399.5,157.5C 401.515,158.924 403.848,159.59 406.5,159.5C 408.515,160.924 410.848,161.59 413.5,161.5C 425.114,164.233 436.447,167.566 447.5,171.5C 448.219,173.764 448.552,176.097 448.5,178.5C 444.5,183.167 440.167,187.5 435.5,191.5C 433.973,191.427 432.973,192.094 432.5,193.5C 431.5,193.833 430.833,194.5 430.5,195.5C 414.193,211.473 397.86,227.473 381.5,243.5C 379.973,243.427 378.973,244.094 378.5,245.5C 371.112,253.889 363.112,261.556 354.5,268.5C 353.5,268.833 352.833,269.5 352.5,270.5C 345.5,278.167 338.167,285.5 330.5,292.5C 328.973,292.427 327.973,293.094 327.5,294.5C 326.5,294.833 325.833,295.5 325.5,296.5C 318.5,304.167 311.167,311.5 303.5,318.5C 301.973,318.427 300.973,319.094 300.5,320.5C 292.779,329.222 284.446,337.222 275.5,344.5C 274.5,344.833 273.833,345.5 273.5,346.5C 266.112,354.889 258.112,362.556 249.5,369.5C 248.5,369.833 247.833,370.5 247.5,371.5C 240.5,379.167 233.167,386.5 225.5,393.5C 223.251,394.08 221.585,395.413 220.5,397.5C 213.445,405.556 205.779,412.89 197.5,419.5C 196.5,419.833 195.833,420.5 195.5,421.5C 194.5,421.833 193.833,422.5 193.5,423.5C 186.5,431.167 179.167,438.5 171.5,445.5C 169.973,445.427 168.973,446.094 168.5,447.5C 166.5,450.167 164.167,452.5 161.5,454.5C 159.167,454.5 156.833,454.5 154.5,454.5C 150.292,441.482 146.959,428.149 144.5,414.5C 144.741,412.102 144.074,410.102 142.5,408.5C 142.5,407.833 142.5,407.167 142.5,406.5C 142.59,403.848 141.924,401.515 140.5,399.5C 140.5,399.167 140.5,398.833 140.5,398.5C 140.435,395.572 139.768,392.905 138.5,390.5C 134.898,378.76 131.898,366.76 129.5,354.5C 129.829,351.772 129.163,349.438 127.5,347.5C 126.699,345.958 126.366,344.292 126.5,342.5C 126.829,339.772 126.163,337.438 124.5,335.5C 124.5,334.833 124.5,334.167 124.5,333.5C 124.435,330.572 123.768,327.905 122.5,325.5C 122.435,322.572 121.768,319.905 120.5,317.5C 120.435,314.572 119.768,311.905 118.5,309.5C 118.435,306.572 117.768,303.905 116.5,301.5C 116.435,298.572 115.768,295.905 114.5,293.5C 110.739,281.453 107.739,269.119 105.5,256.5C 105.741,254.102 105.074,252.102 103.5,250.5C 103.5,249.833 103.5,249.167 103.5,248.5C 103.741,246.102 103.074,244.102 101.5,242.5C 101.5,241.833 101.5,241.167 101.5,240.5C 101.741,238.102 101.074,236.102 99.5,234.5C 99.5,233.833 99.5,233.167 99.5,232.5C 99.4349,229.572 98.7682,226.905 97.5,224.5C 93.8983,212.76 90.8983,200.76 88.5,188.5C 87.2357,179.105 84.9024,170.105 81.5,161.5C 81.5,160.833 81.5,160.167 81.5,159.5C 81.4349,156.572 80.7682,153.905 79.5,151.5C 79.4349,148.572 78.7682,145.905 77.5,143.5C 77.4349,140.572 76.7682,137.905 75.5,135.5C 75.5905,132.848 74.9238,130.515 73.5,128.5C 69.8736,115.994 66.8736,103.327 64.5,90.5C 64.7406,88.1016 64.0739,86.1016 62.5,84.5C 62.5,83.8333 62.5,83.1667 62.5,82.5C 62.7406,80.1016 62.0739,78.1016 60.5,76.5C 60.5,75.8333 60.5,75.1667 60.5,74.5C 60.5905,71.8478 59.9238,69.5145 58.5,67.5C 57.3991,65.0121 58.0657,63.0121 60.5,61.5 Z M 72.5,73.5 C 72.8333,73.5 73.1667,73.5 73.5,73.5C 76.6189,74.8699 79.9523,75.8699 83.5,76.5C 83.8333,76.5 84.1667,76.5 84.5,76.5C 86.5145,77.9238 88.8478,78.5905 91.5,78.5C 93.5145,79.9238 95.8478,80.5905 98.5,80.5C 100.515,81.9238 102.848,82.5905 105.5,82.5C 107.515,83.9238 109.848,84.5905 112.5,84.5C 114.515,85.9238 116.848,86.5905 119.5,86.5C 122.215,88.0719 125.215,89.0719 128.5,89.5C 128.833,89.5 129.167,89.5 129.5,89.5C 131.214,90.7384 133.214,91.405 135.5,91.5C 135.833,91.5 136.167,91.5 136.5,91.5C 138.214,92.7384 140.214,93.405 142.5,93.5C 142.833,93.5 143.167,93.5 143.5,93.5C 145.019,94.4098 146.685,95.2432 148.5,96C 147.619,96.7083 146.953,97.5416 146.5,98.5C 143.833,100.5 141.5,102.833 139.5,105.5C 136.5,107.833 133.833,110.5 131.5,113.5C 126.226,117.105 121.559,121.438 117.5,126.5C 112.5,130.833 107.833,135.5 103.5,140.5C 98.5603,143.77 94.2269,147.77 90.5,152.5C 89.1667,148.833 87.8333,145.167 86.5,141.5C 85.2771,134.28 83.6104,127.28 81.5,120.5C 81.2576,116.521 80.2576,112.854 78.5,109.5C 78.7062,106.505 78.0395,103.838 76.5,101.5C 76.7062,98.5049 76.0395,95.8383 74.5,93.5C 74.7062,90.5049 74.0395,87.8383 72.5,85.5C 72.5797,82.2186 71.913,79.2186 70.5,76.5C 70.2852,74.8212 70.9519,73.8212 72.5,73.5 Z M 168.5,100.5 C 170.515,101.924 172.848,102.59 175.5,102.5C 179.195,104.432 183.195,105.765 187.5,106.5C 187.833,106.5 188.167,106.5 188.5,106.5C 192.895,108.435 197.562,109.769 202.5,110.5C 204.515,111.924 206.848,112.59 209.5,112.5C 212.907,114.074 216.573,115.074 220.5,115.5C 222.515,116.924 224.848,117.59 227.5,117.5C 231.216,119.405 235.216,120.739 239.5,121.5C 239.833,121.5 240.167,121.5 240.5,121.5C 241.263,122.268 242.263,122.768 243.5,123C 241.627,124.704 239.96,126.537 238.5,128.5C 235.167,131.167 232.167,134.167 229.5,137.5C 227.5,138.833 225.833,140.5 224.5,142.5C 223.167,142.5 222.5,143.167 222.5,144.5C 216.558,148.773 211.224,153.773 206.5,159.5C 202.5,162.833 198.833,166.5 195.5,170.5C 191.933,172.557 188.766,175.223 186,178.5C 185.722,177.584 185.222,176.918 184.5,176.5C 184.706,173.505 184.04,170.838 182.5,168.5C 182.58,165.219 181.913,162.219 180.5,159.5C 180.435,156.572 179.768,153.905 178.5,151.5C 178.435,148.572 177.768,145.905 176.5,143.5C 176.435,140.572 175.768,137.905 174.5,135.5C 174.435,132.572 173.768,129.905 172.5,127.5C 170.898,118.922 168.898,110.422 166.5,102C 166.836,100.97 167.503,100.47 168.5,100.5 Z M 155.5,103.5 C 156.167,104.167 156.833,104.833 157.5,105.5C 157.294,108.495 157.96,111.162 159.5,113.5C 159.294,116.495 159.96,119.162 161.5,121.5C 161.294,124.495 161.96,127.162 163.5,129.5C 163.294,132.495 163.96,135.162 165.5,137.5C 166.407,144.789 168.073,151.789 170.5,158.5C 170.366,160.292 170.699,161.958 171.5,163.5C 171.721,166.067 172.388,168.401 173.5,170.5C 173.565,173.428 174.232,176.095 175.5,178.5C 175.649,179.552 175.483,180.552 175,181.5C 172.699,180.133 170.199,179.466 167.5,179.5C 151.4,174.388 135.066,169.721 118.5,165.5C 116.485,164.076 114.152,163.41 111.5,163.5C 109.485,162.076 107.152,161.41 104.5,161.5C 102.786,160.262 100.786,159.595 98.5,159.5C 98.0618,159.565 97.7284,159.399 97.5,159C 114.96,142.944 131.96,126.444 148.5,109.5C 150.749,108.92 152.415,107.587 153.5,105.5C 154.5,105.167 155.167,104.5 155.5,103.5 Z M 261.5,128.5 C 262.833,128.5 264.167,128.5 265.5,128.5C 267.214,129.738 269.214,130.405 271.5,130.5C 271.833,130.5 272.167,130.5 272.5,130.5C 274.515,131.924 276.848,132.59 279.5,132.5C 281.515,133.924 283.848,134.59 286.5,134.5C 289.215,136.072 292.215,137.072 295.5,137.5C 295.833,137.5 296.167,137.5 296.5,137.5C 298.515,138.924 300.848,139.59 303.5,139.5C 305.214,140.738 307.214,141.405 309.5,141.5C 309.833,141.5 310.167,141.5 310.5,141.5C 312.515,142.924 314.848,143.59 317.5,143.5C 319.515,144.924 321.848,145.59 324.5,145.5C 326.515,146.924 328.848,147.59 331.5,147.5C 333.515,148.924 335.848,149.59 338.5,149.5C 335.167,153.167 331.833,156.833 328.5,160.5C 322.119,166.215 316.119,172.215 310.5,178.5C 304.224,183.107 298.557,188.441 293.5,194.5C 291.167,196.167 289.167,198.167 287.5,200.5C 286.167,200.5 285.5,201.167 285.5,202.5C 283.5,203.5 281.5,204.5 279.5,205.5C 278.927,199.545 277.593,193.878 275.5,188.5C 275.435,185.572 274.768,182.905 273.5,180.5C 273.435,177.572 272.768,174.905 271.5,172.5C 271.435,169.572 270.768,166.905 269.5,164.5C 269.435,161.572 268.768,158.905 267.5,156.5C 267.435,153.572 266.768,150.905 265.5,148.5C 265.634,146.708 265.301,145.042 264.5,143.5C 264.435,140.572 263.768,137.905 262.5,135.5C 262.326,133.139 261.993,130.806 261.5,128.5 Z M 250.5,130.5 C 251.167,131.833 251.833,133.167 252.5,134.5C 252.5,134.833 252.5,135.167 252.5,135.5C 253.342,140.745 254.675,145.745 256.5,150.5C 256.5,150.833 256.5,151.167 256.5,151.5C 256.41,154.152 257.076,156.485 258.5,158.5C 258.294,161.495 258.96,164.162 260.5,166.5C 260.294,169.495 260.96,172.162 262.5,174.5C 262.5,174.833 262.5,175.167 262.5,175.5C 262.565,178.428 263.232,181.095 264.5,183.5C 266.167,191.5 267.833,199.5 269.5,207.5C 268.167,207.5 266.833,207.5 265.5,207.5C 262.093,205.926 258.427,204.926 254.5,204.5C 252.485,203.076 250.152,202.41 247.5,202.5C 235.112,198.233 222.446,194.566 209.5,191.5C 207.485,190.076 205.152,189.41 202.5,189.5C 200.485,188.076 198.152,187.41 195.5,187.5C 194.737,186.732 193.737,186.232 192.5,186C 200.004,179.662 207.004,172.829 213.5,165.5C 215.404,165.262 216.738,164.262 217.5,162.5C 224.833,155.833 231.833,148.833 238.5,141.5C 239.833,141.5 240.5,140.833 240.5,139.5C 241.833,139.5 242.5,138.833 242.5,137.5C 242.833,137.5 243.167,137.5 243.5,137.5C 244.5,137.167 245.167,136.5 245.5,135.5C 247.5,134.167 249.167,132.5 250.5,130.5 Z M 357.5,155.5 C 357.833,155.5 358.167,155.5 358.5,155.5C 361.907,157.074 365.573,158.074 369.5,158.5C 371.214,159.738 373.214,160.405 375.5,160.5C 375.833,160.5 376.167,160.5 376.5,160.5C 378.515,161.924 380.848,162.59 383.5,162.5C 385.515,163.924 387.848,164.59 390.5,164.5C 392.515,165.924 394.848,166.59 397.5,166.5C 400.505,168.277 403.838,169.277 407.5,169.5C 409.214,170.738 411.214,171.405 413.5,171.5C 413.833,171.5 414.167,171.5 414.5,171.5C 416.214,172.738 418.214,173.405 420.5,173.5C 420.833,173.5 421.167,173.5 421.5,173.5C 423.214,174.738 425.214,175.405 427.5,175.5C 427.833,175.5 428.167,175.5 428.5,175.5C 430.214,176.738 432.214,177.405 434.5,177.5C 435.167,177.5 435.5,177.833 435.5,178.5C 432.573,179.757 430.239,181.757 428.5,184.5C 427.167,185.167 426.167,186.167 425.5,187.5C 422.5,189.833 419.833,192.5 417.5,195.5C 416.167,196.167 415.167,197.167 414.5,198.5C 409.226,202.105 404.559,206.438 400.5,211.5C 397.833,213.5 395.5,215.833 393.5,218.5C 391.167,220.167 389.167,222.167 387.5,224.5C 383.229,227.101 379.563,230.434 376.5,234.5C 375.833,233.5 375.167,232.5 374.5,231.5C 374.198,228.627 373.531,225.961 372.5,223.5C 371.591,216.859 369.924,210.526 367.5,204.5C 367.706,201.505 367.04,198.838 365.5,196.5C 365.26,191.88 364.26,187.547 362.5,183.5C 362.435,180.572 361.768,177.905 360.5,175.5C 360.435,172.572 359.768,169.905 358.5,167.5C 358.706,164.505 358.04,161.838 356.5,159.5C 356.5,158.833 356.5,158.167 356.5,157.5C 356.328,156.508 356.662,155.842 357.5,155.5 Z M 349.5,171.5 C 349.595,173.786 350.262,175.786 351.5,177.5C 351.294,180.495 351.96,183.162 353.5,185.5C 353.5,186.167 353.5,186.833 353.5,187.5C 353.595,189.786 354.262,191.786 355.5,193.5C 358.072,207.453 361.405,221.12 365.5,234.5C 364.432,235.434 363.099,235.768 361.5,235.5C 353.712,232.797 345.712,230.464 337.5,228.5C 335.485,227.076 333.152,226.41 330.5,226.5C 328.485,225.076 326.152,224.41 323.5,224.5C 321.485,223.076 319.152,222.41 316.5,222.5C 314.485,221.076 312.152,220.41 309.5,220.5C 302.733,218.055 295.733,216.055 288.5,214.5C 288.5,213.833 288.5,213.167 288.5,212.5C 293.167,208.5 297.5,204.167 301.5,199.5C 302.833,199.5 303.5,198.833 303.5,197.5C 304.833,197.5 305.5,196.833 305.5,195.5C 314.446,188.222 322.779,180.222 330.5,171.5C 331.833,171.5 332.5,170.833 332.5,169.5C 334.027,169.573 335.027,168.906 335.5,167.5C 339.131,164.371 342.631,161.037 346,157.5C 347.171,162.185 348.338,166.852 349.5,171.5 Z M 93.5,169.5 C 93.8417,168.662 94.5084,168.328 95.5,168.5C 98.2154,170.072 101.215,171.072 104.5,171.5C 104.833,171.5 105.167,171.5 105.5,171.5C 107.214,172.738 109.214,173.405 111.5,173.5C 111.833,173.5 112.167,173.5 112.5,173.5C 114.515,174.924 116.848,175.59 119.5,175.5C 121.214,176.738 123.214,177.405 125.5,177.5C 125.833,177.5 126.167,177.5 126.5,177.5C 128.515,178.924 130.848,179.59 133.5,179.5C 135.214,180.738 137.214,181.405 139.5,181.5C 139.833,181.5 140.167,181.5 140.5,181.5C 142.515,182.924 144.848,183.59 147.5,183.5C 148.568,184.434 149.901,184.768 151.5,184.5C 153.515,185.924 155.848,186.59 158.5,186.5C 160.515,187.924 162.848,188.59 165.5,188.5C 167.438,190.163 169.772,190.829 172.5,190.5C 171.925,192.411 170.925,194.078 169.5,195.5C 163.224,200.107 157.557,205.441 152.5,211.5C 148.833,214.5 145.5,217.833 142.5,221.5C 137.226,225.105 132.559,229.438 128.5,234.5C 123.785,238.548 119.452,242.881 115.5,247.5C 114.391,247.443 113.391,247.11 112.5,246.5C 112.768,244.901 112.434,243.568 111.5,242.5C 111.435,239.572 110.768,236.905 109.5,234.5C 109.768,232.901 109.434,231.568 108.5,230.5C 108.435,227.572 107.768,224.905 106.5,222.5C 106.706,219.505 106.04,216.838 104.5,214.5C 104.706,211.505 104.04,208.838 102.5,206.5C 102.5,206.167 102.5,205.833 102.5,205.5C 102.59,202.848 101.924,200.515 100.5,198.5C 100.706,195.505 100.04,192.838 98.5,190.5C 97.5932,183.211 95.9265,176.211 93.5,169.5 Z M 191.5,196.5 C 192.167,196.5 192.833,196.5 193.5,196.5C 196.215,198.072 199.215,199.072 202.5,199.5C 202.833,199.5 203.167,199.5 203.5,199.5C 205.214,200.738 207.214,201.405 209.5,201.5C 209.833,201.5 210.167,201.5 210.5,201.5C 212.214,202.738 214.214,203.405 216.5,203.5C 216.833,203.5 217.167,203.5 217.5,203.5C 219.214,204.738 221.214,205.405 223.5,205.5C 223.833,205.5 224.167,205.5 224.5,205.5C 226.515,206.924 228.848,207.59 231.5,207.5C 233.515,208.924 235.848,209.59 238.5,209.5C 239.568,210.434 240.901,210.768 242.5,210.5C 244.515,211.924 246.848,212.59 249.5,212.5C 251.214,213.738 253.214,214.405 255.5,214.5C 255.833,214.5 256.167,214.5 256.5,214.5C 259.146,216.253 262.146,217.253 265.5,217.5C 266.167,218.167 266.833,218.833 267.5,219.5C 265.659,220.402 264.326,221.736 263.5,223.5C 258.226,227.105 253.559,231.438 249.5,236.5C 246.167,239.167 243.167,242.167 240.5,245.5C 239.167,245.5 238.5,246.167 238.5,247.5C 237.167,247.5 236.5,248.167 236.5,249.5C 232.229,252.101 228.563,255.434 225.5,259.5C 221.5,262.833 217.833,266.5 214.5,270.5C 212.833,271.5 211.5,272.833 210.5,274.5C 209.313,272.928 208.313,271.261 207.5,269.5C 207.784,267.585 207.451,265.919 206.5,264.5C 206.258,260.521 205.258,256.854 203.5,253.5C 203.706,250.505 203.04,247.838 201.5,245.5C 201.706,242.505 201.04,239.838 199.5,237.5C 199.784,235.585 199.451,233.919 198.5,232.5C 198.435,229.572 197.768,226.905 196.5,224.5C 196.435,221.572 195.768,218.905 194.5,216.5C 194.435,213.572 193.768,210.905 192.5,208.5C 192.5,208.167 192.5,207.833 192.5,207.5C 192.279,204.933 191.612,202.599 190.5,200.5C 190.5,199.833 190.5,199.167 190.5,198.5C 190.328,197.508 190.662,196.842 191.5,196.5 Z M 180.5,199.5 C 180.882,203.446 181.882,207.112 183.5,210.5C 183.294,213.495 183.96,216.162 185.5,218.5C 185.294,221.495 185.96,224.162 187.5,226.5C 190.404,241.782 194.071,256.782 198.5,271.5C 198.318,273.591 198.652,275.591 199.5,277.5C 199.043,278.298 198.376,278.631 197.5,278.5C 191.769,276.231 185.769,274.565 179.5,273.5C 177.786,272.262 175.786,271.595 173.5,271.5C 165.309,268.702 156.976,266.369 148.5,264.5C 146.485,263.076 144.152,262.41 141.5,262.5C 139.485,261.076 137.152,260.41 134.5,260.5C 130.047,258.712 125.38,257.212 120.5,256C 124.37,252.298 128.037,248.464 131.5,244.5C 132.833,244.5 133.5,243.833 133.5,242.5C 135.027,242.573 136.027,241.906 136.5,240.5C 144.833,232.833 152.833,224.833 160.5,216.5C 162.404,216.262 163.738,215.262 164.5,213.5C 169.798,208.703 174.965,203.703 180,198.5C 180.399,198.728 180.565,199.062 180.5,199.5 Z M 285.5,223.5 C 285.833,223.5 286.167,223.5 286.5,223.5C 288.214,224.738 290.214,225.405 292.5,225.5C 292.833,225.5 293.167,225.5 293.5,225.5C 295.515,226.924 297.848,227.59 300.5,227.5C 302.515,228.924 304.848,229.59 307.5,229.5C 309.515,230.924 311.848,231.59 314.5,231.5C 316.515,232.924 318.848,233.59 321.5,233.5C 324.215,235.072 327.215,236.072 330.5,236.5C 330.833,236.5 331.167,236.5 331.5,236.5C 333.214,237.738 335.214,238.405 337.5,238.5C 337.833,238.5 338.167,238.5 338.5,238.5C 340.214,239.738 342.214,240.405 344.5,240.5C 344.833,240.5 345.167,240.5 345.5,240.5C 347.214,241.738 349.214,242.405 351.5,242.5C 351.833,242.5 352.167,242.5 352.5,242.5C 354.515,243.924 356.848,244.59 359.5,244.5C 361.076,245.143 362.41,246.143 363.5,247.5C 362.167,247.5 361.5,248.167 361.5,249.5C 356.56,252.77 352.227,256.77 348.5,261.5C 346.5,262.833 344.833,264.5 343.5,266.5C 340.118,269.215 337.118,272.215 334.5,275.5C 329.226,279.105 324.559,283.438 320.5,288.5C 317.167,291.167 314.167,294.167 311.5,297.5C 310.167,297.5 309.5,298.167 309.5,299.5C 307.629,299.859 306.129,300.859 305,302.5C 304.617,301.944 304.117,301.611 303.5,301.5C 303.567,300.041 303.234,298.708 302.5,297.5C 302.59,294.848 301.924,292.515 300.5,290.5C 300.706,287.505 300.04,284.838 298.5,282.5C 298.706,279.505 298.04,276.838 296.5,274.5C 296.706,271.505 296.04,268.838 294.5,266.5C 293.593,259.211 291.927,252.211 289.5,245.5C 289.435,242.572 288.768,239.905 287.5,237.5C 287.706,234.505 287.04,231.838 285.5,229.5C 285.242,227.19 285.242,225.19 285.5,223.5 Z M 273.5,226.5 C 274.167,226.833 274.833,227.167 275.5,227.5C 275.565,230.428 276.232,233.095 277.5,235.5C 277.584,239.837 278.584,243.837 280.5,247.5C 280.5,248.167 280.5,248.833 280.5,249.5C 280.595,251.786 281.262,253.786 282.5,255.5C 282.5,256.167 282.5,256.833 282.5,257.5C 282.595,259.786 283.262,261.786 284.5,263.5C 287.085,277.445 290.418,291.111 294.5,304.5C 292.374,305.103 290.041,305.103 287.5,304.5C 285.485,303.076 283.152,302.41 280.5,302.5C 274.769,300.231 268.769,298.565 262.5,297.5C 260.898,295.926 258.898,295.259 256.5,295.5C 254.485,294.076 252.152,293.41 249.5,293.5C 246.45,291.899 243.116,290.899 239.5,290.5C 232.426,287.926 225.093,285.926 217.5,284.5C 216.833,283.833 216.167,283.167 215.5,282.5C 219.833,278.833 223.833,274.833 227.5,270.5C 228.833,270.5 229.5,269.833 229.5,268.5C 231.027,268.573 232.027,267.906 232.5,266.5C 240.167,259.5 247.5,252.167 254.5,244.5C 255.833,244.5 256.5,243.833 256.5,242.5C 258.027,242.573 259.027,241.906 259.5,240.5C 264.5,236.167 269.167,231.5 273.5,226.5 Z M 122.5,266.5 C 124.515,267.924 126.848,268.59 129.5,268.5C 131.214,269.738 133.214,270.405 135.5,270.5C 135.833,270.5 136.167,270.5 136.5,270.5C 139.505,272.277 142.838,273.277 146.5,273.5C 148.515,274.924 150.848,275.59 153.5,275.5C 155.214,276.738 157.214,277.405 159.5,277.5C 159.833,277.5 160.167,277.5 160.5,277.5C 162.515,278.924 164.848,279.59 167.5,279.5C 169.515,280.924 171.848,281.59 174.5,281.5C 176.515,282.924 178.848,283.59 181.5,283.5C 183.515,284.924 185.848,285.59 188.5,285.5C 190.515,286.924 192.848,287.59 195.5,287.5C 192.167,291.167 188.833,294.833 185.5,298.5C 184.167,299.167 183.167,300.167 182.5,301.5C 181.167,301.5 180.5,302.167 180.5,303.5C 179.167,303.5 178.5,304.167 178.5,305.5C 173.56,308.77 169.227,312.77 165.5,317.5C 163.5,318.833 161.833,320.5 160.5,322.5C 157.118,325.215 154.118,328.215 151.5,331.5C 146.224,335.437 141.224,339.771 136.5,344.5C 136.26,339.88 135.26,335.547 133.5,331.5C 133.435,328.572 132.768,325.905 131.5,323.5C 129.435,312.573 126.768,301.907 123.5,291.5C 123.083,285.83 121.749,280.497 119.5,275.5C 119.706,272.505 119.04,269.838 117.5,267.5C 117.369,266.761 117.536,266.094 118,265.5C 119.356,266.38 120.856,266.714 122.5,266.5 Z M 219.5,294.5 C 221.214,295.738 223.214,296.405 225.5,296.5C 225.833,296.5 226.167,296.5 226.5,296.5C 228.515,297.924 230.848,298.59 233.5,298.5C 235.515,299.924 237.848,300.59 240.5,300.5C 242.515,301.924 244.848,302.59 247.5,302.5C 250.215,304.072 253.215,305.072 256.5,305.5C 256.833,305.5 257.167,305.5 257.5,305.5C 259.214,306.738 261.214,307.405 263.5,307.5C 263.833,307.5 264.167,307.5 264.5,307.5C 266.214,308.738 268.214,309.405 270.5,309.5C 270.833,309.5 271.167,309.5 271.5,309.5C 273.214,310.738 275.214,311.405 277.5,311.5C 277.833,311.5 278.167,311.5 278.5,311.5C 280.515,312.924 282.848,313.59 285.5,313.5C 286.209,314.404 287.209,314.737 288.5,314.5C 289.263,315.268 290.263,315.768 291.5,316C 288.961,318.37 286.628,320.87 284.5,323.5C 283.167,323.5 282.5,324.167 282.5,325.5C 277.56,328.77 273.227,332.77 269.5,337.5C 265.167,341.167 261.167,345.167 257.5,349.5C 250.222,355.109 243.556,361.442 237.5,368.5C 236.167,369.167 235.167,370.167 234.5,371.5C 233.065,370.087 232.065,368.42 231.5,366.5C 231.706,363.505 231.04,360.838 229.5,358.5C 229.706,355.505 229.04,352.838 227.5,350.5C 227.706,347.505 227.04,344.838 225.5,342.5C 225.5,342.167 225.5,341.833 225.5,341.5C 225.59,338.848 224.924,336.515 223.5,334.5C 223.58,331.219 222.913,328.219 221.5,325.5C 221.435,322.572 220.768,319.905 219.5,317.5C 219.435,314.572 218.768,311.905 217.5,309.5C 217.435,306.572 216.768,303.905 215.5,301.5C 214.992,298.824 214.825,296.157 215,293.5C 216.356,294.38 217.856,294.714 219.5,294.5 Z M 202.5,295.5 C 203.167,295.5 203.833,295.5 204.5,295.5C 204.294,298.495 204.96,301.162 206.5,303.5C 206.5,304.167 206.5,304.833 206.5,305.5C 208.389,314.726 210.722,323.726 213.5,332.5C 215.232,342.093 217.565,351.427 220.5,360.5C 220.848,364.557 221.514,368.557 222.5,372.5C 221.5,372.5 220.5,372.5 219.5,372.5C 217.485,371.076 215.152,370.41 212.5,370.5C 210.485,369.076 208.152,368.41 205.5,368.5C 203.485,367.076 201.152,366.41 198.5,366.5C 196.485,365.076 194.152,364.41 191.5,364.5C 189.485,363.076 187.152,362.41 184.5,362.5C 182.485,361.076 180.152,360.41 177.5,360.5C 175.485,359.076 173.152,358.41 170.5,358.5C 162.428,355.592 154.095,353.259 145.5,351.5C 145.833,350.833 146.167,350.167 146.5,349.5C 154.5,342.167 162.167,334.5 169.5,326.5C 170.833,326.5 171.5,325.833 171.5,324.5C 181.113,316.555 190.113,307.889 198.5,298.5C 200.027,298.573 201.027,297.906 201.5,296.5C 202.167,296.5 202.5,296.167 202.5,295.5 Z M 142.5,360.5 C 144.042,361.301 145.708,361.634 147.5,361.5C 149.214,362.738 151.214,363.405 153.5,363.5C 153.833,363.5 154.167,363.5 154.5,363.5C 156.515,364.924 158.848,365.59 161.5,365.5C 163.214,366.738 165.214,367.405 167.5,367.5C 167.833,367.5 168.167,367.5 168.5,367.5C 170.515,368.924 172.848,369.59 175.5,369.5C 177.515,370.924 179.848,371.59 182.5,371.5C 184.515,372.924 186.848,373.59 189.5,373.5C 191.515,374.924 193.848,375.59 196.5,375.5C 197.209,376.404 198.209,376.737 199.5,376.5C 201.214,377.738 203.214,378.405 205.5,378.5C 205.833,378.5 206.167,378.5 206.5,378.5C 208.214,379.738 210.214,380.405 212.5,380.5C 212.833,380.5 213.167,380.5 213.5,380.5C 215.214,381.738 217.214,382.405 219.5,382.5C 219.833,382.5 220.167,382.5 220.5,382.5C 220.443,383.609 220.11,384.609 219.5,385.5C 217.167,387.167 215.167,389.167 213.5,391.5C 210.833,393.5 208.5,395.833 206.5,398.5C 205.167,398.5 204.5,399.167 204.5,400.5C 203.167,400.5 202.5,401.167 202.5,402.5C 196.224,407.107 190.557,412.441 185.5,418.5C 182.452,420.882 179.785,423.548 177.5,426.5C 172.56,429.77 168.227,433.77 164.5,438.5C 163.167,439.5 161.833,440.5 160.5,441.5C 160.706,438.505 160.04,435.838 158.5,433.5C 158.706,430.505 158.04,427.838 156.5,425.5C 156.784,423.585 156.451,421.919 155.5,420.5C 155.435,417.572 154.768,414.905 153.5,412.5C 153.435,409.572 152.768,406.905 151.5,404.5C 150.768,398.906 149.435,393.573 147.5,388.5C 147.706,385.505 147.04,382.838 145.5,380.5C 145.706,377.505 145.04,374.838 143.5,372.5C 143.706,369.505 143.04,366.838 141.5,364.5C 141.5,364.167 141.5,363.833 141.5,363.5C 141.263,362.209 141.596,361.209 142.5,360.5 Z"/></g>
<g><path style="opacity:0.012" fill="#c8c8c8" d="M 69.5,62.5 C 72.1522,62.4095 74.4855,63.0762 76.5,64.5C 73.8478,64.5905 71.5145,63.9238 69.5,62.5 Z"/></g>
<g><path style="opacity:0.022" fill="#d2d2d2" d="M 72.5,73.5 C 70.9519,73.8212 70.2852,74.8212 70.5,76.5C 69.5655,75.4324 69.2322,74.099 69.5,72.5C 70.791,72.2627 71.791,72.596 72.5,73.5 Z"/></g>
<g><path style="opacity:0.098" fill="#c6c6c6" d="M 58.5,67.5 C 59.9238,69.5145 60.5905,71.8478 60.5,74.5C 59.0762,72.4855 58.4095,70.1522 58.5,67.5 Z"/></g>
<g><path style="opacity:0.839" fill="#949494" d="M 73.5,73.5 C 77.2856,73.32 80.619,74.32 83.5,76.5C 79.9523,75.8699 76.6189,74.8699 73.5,73.5 Z"/></g>
<g><path style="opacity:0.035" fill="#c0c0c0" d="M 107.5,73.5 C 110.152,73.4095 112.485,74.0762 114.5,75.5C 111.848,75.5905 109.515,74.9238 107.5,73.5 Z"/></g>
<g><path style="opacity:0.035" fill="#c1c1c1" d="M 114.5,75.5 C 117.152,75.4095 119.485,76.0762 121.5,77.5C 118.848,77.5905 116.515,76.9238 114.5,75.5 Z"/></g>
<g><path style="opacity:0.624" fill="#858585" d="M 84.5,76.5 C 87.2282,76.1706 89.5615,76.8372 91.5,78.5C 88.8478,78.5905 86.5145,77.9238 84.5,76.5 Z"/></g>
<g><path style="opacity:0.024" fill="#c4c4c4" d="M 121.5,77.5 C 124.152,77.4095 126.485,78.0762 128.5,79.5C 125.848,79.5905 123.515,78.9238 121.5,77.5 Z"/></g>
<g><path style="opacity:0.725" fill="#939393" d="M 91.5,78.5 C 94.1522,78.4095 96.4855,79.0762 98.5,80.5C 95.8478,80.5905 93.5145,79.9238 91.5,78.5 Z"/></g>
<g><path style="opacity:0.514" fill="#a4a4a4" d="M 60.5,76.5 C 62.0739,78.1016 62.7406,80.1016 62.5,82.5C 61.2616,80.7857 60.595,78.7857 60.5,76.5 Z"/></g>
<g><path style="opacity:0.016" fill="#c3c3c3" d="M 128.5,79.5 C 131.152,79.4095 133.485,80.0762 135.5,81.5C 132.848,81.5905 130.515,80.9238 128.5,79.5 Z"/></g>
<g><path style="opacity:0.773" fill="#888888" d="M 105.5,82.5 C 108.152,82.4095 110.485,83.0762 112.5,84.5C 109.848,84.5905 107.515,83.9238 105.5,82.5 Z"/></g>
<g><path style="opacity:0.808" fill="#888888" d="M 112.5,84.5 C 115.152,84.4095 117.485,85.0762 119.5,86.5C 116.848,86.5905 114.515,85.9238 112.5,84.5 Z"/></g>
<g><path style="opacity:0.816" fill="#999999" d="M 119.5,86.5 C 122.916,86.5275 125.916,87.5275 128.5,89.5C 125.215,89.0719 122.215,88.0719 119.5,86.5 Z"/></g>
<g><path style="opacity:0.541" fill="#9e9e9e" d="M 62.5,84.5 C 64.0739,86.1016 64.7406,88.1016 64.5,90.5C 63.2616,88.7857 62.595,86.7857 62.5,84.5 Z"/></g>
<g><path style="opacity:0.729" fill="#878787" d="M 72.5,85.5 C 74.0395,87.8383 74.7062,90.5049 74.5,93.5C 73.2318,91.0948 72.5651,88.4282 72.5,85.5 Z"/></g>
<g><path style="opacity:0.671" fill="#a5a5a5" d="M 129.5,89.5 C 131.898,89.2594 133.898,89.9261 135.5,91.5C 133.214,91.405 131.214,90.7384 129.5,89.5 Z"/></g>
<g><path style="opacity:0.043" fill="#bcbcbc" d="M 166.5,90.5 C 169.152,90.4095 171.485,91.0762 173.5,92.5C 170.848,92.5905 168.515,91.9238 166.5,90.5 Z"/></g>
<g><path style="opacity:0.682" fill="#a4a4a4" d="M 136.5,91.5 C 138.898,91.2594 140.898,91.9261 142.5,93.5C 140.214,93.405 138.214,92.7384 136.5,91.5 Z"/></g>
<g><path style="opacity:0.031" fill="#bebebe" d="M 173.5,92.5 C 176.152,92.4095 178.485,93.0762 180.5,94.5C 177.848,94.5905 175.515,93.9238 173.5,92.5 Z"/></g>
<g><path style="opacity:0.09" fill="#b4b4b4" d="M 143.5,93.5 C 146.056,93.1322 148.056,93.9655 149.5,96C 149.252,97.7491 148.252,98.5824 146.5,98.5C 146.953,97.5416 147.619,96.7083 148.5,96C 146.685,95.2432 145.019,94.4098 143.5,93.5 Z"/></g>
<g><path style="opacity:0.024" fill="#c0c0c0" d="M 180.5,94.5 C 183.152,94.4095 185.485,95.0762 187.5,96.5C 184.848,96.5905 182.515,95.9238 180.5,94.5 Z"/></g>
<g><path style="opacity:0.71" fill="#8c8c8c" d="M 74.5,93.5 C 76.0395,95.8383 76.7062,98.5049 76.5,101.5C 75.2318,99.0948 74.5651,96.4282 74.5,93.5 Z"/></g>
<g><path style="opacity:0.004" fill="#c1c1c1" d="M 187.5,96.5 C 190.152,96.4095 192.485,97.0762 194.5,98.5C 191.848,98.5905 189.515,97.9238 187.5,96.5 Z"/></g>
<g><path style="opacity:0.839" fill="#707070" d="M 168.5,100.5 C 171.152,100.41 173.485,101.076 175.5,102.5C 172.848,102.59 170.515,101.924 168.5,100.5 Z"/></g>
<g><path style="opacity:0.847" fill="#5f5f5f" d="M 146.5,98.5 C 145.167,101.833 142.833,104.167 139.5,105.5C 141.5,102.833 143.833,100.5 146.5,98.5 Z"/></g>
<g><path style="opacity:0.38" fill="#cccccc" d="M 155.5,103.5 C 155.56,102.957 155.893,102.624 156.5,102.5C 157.386,103.325 157.719,104.325 157.5,105.5C 156.833,104.833 156.167,104.167 155.5,103.5 Z"/></g>
<g><path style="opacity:0.863" fill="#949494" d="M 175.5,102.5 C 179.915,102.861 183.915,104.194 187.5,106.5C 183.195,105.765 179.195,104.432 175.5,102.5 Z"/></g>
<g><path style="opacity:0.694" fill="#939393" d="M 76.5,101.5 C 78.0395,103.838 78.7062,106.505 78.5,109.5C 77.2318,107.095 76.5651,104.428 76.5,101.5 Z"/></g>
<g><path style="opacity:0.051" fill="#b5b5b5" d="M 218.5,105.5 C 221.152,105.41 223.485,106.076 225.5,107.5C 222.848,107.59 220.515,106.924 218.5,105.5 Z"/></g>
<g><path style="opacity:0.016" fill="#d2d2d2" d="M 153.5,105.5 C 152.415,107.587 150.749,108.92 148.5,109.5C 149.585,107.413 151.251,106.08 153.5,105.5 Z"/></g>
<g><path style="opacity:0.91" fill="#8f8f8f" d="M 188.5,106.5 C 193.54,106.85 198.206,108.184 202.5,110.5C 197.562,109.769 192.895,108.435 188.5,106.5 Z"/></g>
<g><path style="opacity:0.043" fill="#bbbbbb" d="M 225.5,107.5 C 228.152,107.41 230.485,108.076 232.5,109.5C 229.848,109.59 227.515,108.924 225.5,107.5 Z"/></g>
<g><path style="opacity:0.033" fill="#c7c7c7" d="M 157.5,105.5 C 158.768,107.905 159.435,110.572 159.5,113.5C 157.96,111.162 157.294,108.495 157.5,105.5 Z"/></g>
<g><path style="opacity:0.604" fill="#8c8c8c" d="M 202.5,110.5 C 205.228,110.171 207.562,110.837 209.5,112.5C 206.848,112.59 204.515,111.924 202.5,110.5 Z"/></g>
<g><path style="opacity:0.008" fill="#bbbbbb" d="M 239.5,111.5 C 243.214,111.59 246.548,112.59 249.5,114.5C 245.884,114.101 242.55,113.101 239.5,111.5 Z"/></g>
<g><path style="opacity:0.675" fill="#a1a1a1" d="M 78.5,109.5 C 80.2576,112.854 81.2576,116.521 81.5,120.5C 79.7424,117.146 78.7424,113.479 78.5,109.5 Z"/></g>
<g><path style="opacity:0.925" fill="#737373" d="M 209.5,112.5 C 213.534,112.517 217.201,113.517 220.5,115.5C 216.573,115.074 212.907,114.074 209.5,112.5 Z"/></g>
<g><path style="opacity:0.816" fill="#757575" d="M 220.5,115.5 C 223.152,115.41 225.485,116.076 227.5,117.5C 224.848,117.59 222.515,116.924 220.5,115.5 Z"/></g>
<g><path style="opacity:0.043" fill="#c2c2c2" d="M 159.5,113.5 C 160.768,115.905 161.435,118.572 161.5,121.5C 159.96,119.162 159.294,116.495 159.5,113.5 Z"/></g>
<g><path style="opacity:0.859" fill="#858585" d="M 227.5,117.5 C 231.915,117.861 235.915,119.194 239.5,121.5C 235.216,120.739 231.216,119.405 227.5,117.5 Z"/></g>
<g><path style="opacity:0.678" fill="#919191" d="M 131.5,113.5 C 127.441,118.562 122.774,122.895 117.5,126.5C 121.559,121.438 126.226,117.105 131.5,113.5 Z"/></g>
<g><path style="opacity:0.039" fill="#cdcdcd" d="M 281.5,123.5 C 284.152,123.41 286.485,124.076 288.5,125.5C 285.848,125.59 283.515,124.924 281.5,123.5 Z"/></g>
<g><path style="opacity:0.098" fill="#bdbdbd" d="M 161.5,121.5 C 162.768,123.905 163.435,126.572 163.5,129.5C 161.96,127.162 161.294,124.495 161.5,121.5 Z"/></g>
<g><path style="opacity:0.4" fill="#b6b6b6" d="M 289.5,125.5 C 291.786,125.595 293.786,126.262 295.5,127.5C 293.102,127.741 291.102,127.074 289.5,125.5 Z"/></g>
<g><path style="opacity:0.718" fill="#8e8e8e" d="M 240.5,121.5 C 242.429,121.231 244.095,121.731 245.5,123C 243.559,125.454 241.225,127.287 238.5,128.5C 239.96,126.537 241.627,124.704 243.5,123C 242.263,122.768 241.263,122.268 240.5,121.5 Z"/></g>
<g><path style="opacity:0.702" fill="#787878" d="M 265.5,128.5 C 264.167,128.5 262.833,128.5 261.5,128.5C 261.167,127.167 260.833,127.167 260.5,128.5C 259.115,127.698 259.282,127.031 261,126.5C 262.728,126.899 264.228,127.566 265.5,128.5 Z"/></g>
<g><path style="opacity:0.008" fill="#c7c7c7" d="M 295.5,127.5 C 297.898,127.259 299.898,127.926 301.5,129.5C 299.214,129.405 297.214,128.738 295.5,127.5 Z"/></g>
<g><path style="opacity:0.78" fill="#878787" d="M 265.5,128.5 C 267.898,128.259 269.898,128.926 271.5,130.5C 269.214,130.405 267.214,129.738 265.5,128.5 Z"/></g>
<g><path style="opacity:0.812" fill="#7a7a7a" d="M 272.5,130.5 C 275.152,130.41 277.485,131.076 279.5,132.5C 276.848,132.59 274.515,131.924 272.5,130.5 Z"/></g>
<g><path style="opacity:0.008" fill="#d1d1d1" d="M 73.5,128.5 C 74.9238,130.515 75.5905,132.848 75.5,135.5C 74.0762,133.485 73.4095,131.152 73.5,128.5 Z"/></g>
<g><path style="opacity:0.114" fill="#b7b7b7" d="M 163.5,129.5 C 164.768,131.905 165.435,134.572 165.5,137.5C 163.96,135.162 163.294,132.495 163.5,129.5 Z"/></g>
<g><path style="opacity:0.192" fill="#ababab" d="M 250.5,130.5 C 250.56,129.957 250.893,129.624 251.5,129.5C 252.452,131.045 252.785,132.712 252.5,134.5C 251.833,133.167 251.167,131.833 250.5,130.5 Z"/></g>
<g><path style="opacity:0.827" fill="#797979" d="M 279.5,132.5 C 282.152,132.41 284.485,133.076 286.5,134.5C 283.848,134.59 281.515,133.924 279.5,132.5 Z"/></g>
<g><path style="opacity:0.561" fill="#8f8f8f" d="M 172.5,127.5 C 173.768,129.905 174.435,132.572 174.5,135.5C 172.96,133.162 172.294,130.495 172.5,127.5 Z"/></g>
<g><path style="opacity:0.451" fill="#a8a8a8" d="M 260.5,128.5 C 260.833,128.5 261.167,128.5 261.5,128.5C 261.993,130.806 262.326,133.139 262.5,135.5C 261.076,133.485 260.41,131.152 260.5,128.5 Z"/></g>
<g><path style="opacity:0.867" fill="#888888" d="M 286.5,134.5 C 289.916,134.528 292.916,135.528 295.5,137.5C 292.215,137.072 289.215,136.072 286.5,134.5 Z"/></g>
<g><path style="opacity:0.012" fill="#dbdbdb" d="M 245.5,135.5 C 245.167,136.5 244.5,137.167 243.5,137.5C 243.5,136.167 244.167,135.5 245.5,135.5 Z"/></g>
<g><path style="opacity:0.902" fill="#585858" d="M 238.5,128.5 C 236.5,132.5 233.5,135.5 229.5,137.5C 232.167,134.167 235.167,131.167 238.5,128.5 Z"/></g>
<g><path style="opacity:0.749" fill="#8e8e8e" d="M 296.5,137.5 C 299.152,137.41 301.485,138.076 303.5,139.5C 300.848,139.59 298.515,138.924 296.5,137.5 Z"/></g>
<g><path style="opacity:0.045" fill="#c3c3c3" d="M 75.5,135.5 C 76.7682,137.905 77.4349,140.572 77.5,143.5C 75.9605,141.162 75.2938,138.495 75.5,135.5 Z"/></g>
<g><path style="opacity:0.012" fill="#c1c1c1" d="M 242.5,137.5 C 242.5,138.833 241.833,139.5 240.5,139.5C 240.833,138.5 241.5,137.833 242.5,137.5 Z"/></g>
<g><path style="opacity:0.6" fill="#a2a2a2" d="M 252.5,135.5 C 254.83,140.114 256.164,145.114 256.5,150.5C 254.675,145.745 253.342,140.745 252.5,135.5 Z"/></g>
<g><path style="opacity:0.053" fill="#c9c9c9" d="M 333.5,138.5 C 336.152,138.41 338.485,139.076 340.5,140.5C 337.848,140.59 335.515,139.924 333.5,138.5 Z"/></g>
<g><path style="opacity:0.745" fill="#919191" d="M 303.5,139.5 C 305.898,139.259 307.898,139.926 309.5,141.5C 307.214,141.405 305.214,140.738 303.5,139.5 Z"/></g>
<g><path style="opacity:0.129" fill="#aeaeae" d="M 165.5,137.5 C 167.927,144.211 169.593,151.211 170.5,158.5C 168.073,151.789 166.407,144.789 165.5,137.5 Z"/></g>
<g><path style="opacity:0.008" fill="#c5c5c5" d="M 240.5,139.5 C 240.5,140.833 239.833,141.5 238.5,141.5C 238.833,140.5 239.5,139.833 240.5,139.5 Z"/></g>
<g><path style="opacity:0.012" fill="#cbcbcb" d="M 340.5,140.5 C 343.152,140.41 345.485,141.076 347.5,142.5C 344.848,142.59 342.515,141.924 340.5,140.5 Z"/></g>
<g><path style="opacity:0.537" fill="#979797" d="M 174.5,135.5 C 175.768,137.905 176.435,140.572 176.5,143.5C 174.96,141.162 174.294,138.495 174.5,135.5 Z"/></g>
<g><path style="opacity:0.431" fill="#ababab" d="M 224.5,142.5 C 224.167,143.5 223.5,144.167 222.5,144.5C 222.5,143.167 223.167,142.5 224.5,142.5 Z"/></g>
<g><path style="opacity:0.424" fill="#afafaf" d="M 262.5,135.5 C 263.768,137.905 264.435,140.572 264.5,143.5C 262.96,141.162 262.294,138.495 262.5,135.5 Z"/></g>
<g><path style="opacity:0.694" fill="#777777" d="M 310.5,141.5 C 313.228,141.171 315.562,141.837 317.5,143.5C 314.848,143.59 312.515,142.924 310.5,141.5 Z"/></g>
<g><path style="opacity:0.773" fill="#848484" d="M 317.5,143.5 C 320.152,143.41 322.485,144.076 324.5,145.5C 321.848,145.59 319.515,144.924 317.5,143.5 Z"/></g>
<g><path style="opacity:0.573" fill="#959595" d="M 103.5,140.5 C 99.7731,145.23 95.4397,149.23 90.5,152.5C 94.2269,147.77 98.5603,143.77 103.5,140.5 Z"/></g>
<g><path style="opacity:0.008" fill="#c6c6c6" d="M 354.5,144.5 C 356.898,144.259 358.898,144.926 360.5,146.5C 358.214,146.405 356.214,145.738 354.5,144.5 Z"/></g>
<g><path style="opacity:0.098" fill="#bcbcbc" d="M 77.5,143.5 C 78.7682,145.905 79.4349,148.572 79.5,151.5C 77.9605,149.162 77.2938,146.495 77.5,143.5 Z"/></g>
<g><path style="opacity:0.722" fill="#727272" d="M 324.5,145.5 C 327.228,145.171 329.562,145.837 331.5,147.5C 328.848,147.59 326.515,146.924 324.5,145.5 Z"/></g>
<g><path style="opacity:0.816" fill="#7c7c7c" d="M 331.5,147.5 C 334.152,147.41 336.485,148.076 338.5,149.5C 335.848,149.59 333.515,148.924 331.5,147.5 Z"/></g>
<g><path style="opacity:0.596" fill="#9e9e9e" d="M 86.5,141.5 C 87.8333,145.167 89.1667,148.833 90.5,152.5C 89.528,153.751 88.8614,153.418 88.5,151.5C 87.2049,148.284 86.5382,144.951 86.5,141.5 Z"/></g>
<g><path style="opacity:0.51" fill="#9f9f9f" d="M 176.5,143.5 C 177.768,145.905 178.435,148.572 178.5,151.5C 176.96,149.162 176.294,146.495 176.5,143.5 Z"/></g>
<g><path style="opacity:0.02" fill="#bdbdbd" d="M 378.5,151.5 C 381.152,151.41 383.485,152.076 385.5,153.5C 382.848,153.59 380.515,152.924 378.5,151.5 Z"/></g>
<g><path style="opacity:0.725" fill="#848484" d="M 222.5,144.5 C 217.776,150.227 212.442,155.227 206.5,159.5C 211.224,153.773 216.558,148.773 222.5,144.5 Z"/></g>
<g><path style="opacity:0.02" fill="#c2c2c2" d="M 385.5,153.5 C 388.152,153.41 390.485,154.076 392.5,155.5C 389.848,155.59 387.515,154.924 385.5,153.5 Z"/></g>
<g><path style="opacity:0.118" fill="#bababa" d="M 79.5,151.5 C 80.7682,153.905 81.4349,156.572 81.5,159.5C 79.9605,157.162 79.2938,154.495 79.5,151.5 Z"/></g>
<g><path style="opacity:0.008" fill="#cfcfcf" d="M 256.5,151.5 C 257.924,153.515 258.59,155.848 258.5,158.5C 257.076,156.485 256.41,154.152 256.5,151.5 Z"/></g>
<g><path style="opacity:0.627" fill="#838383" d="M 265.5,148.5 C 266.768,150.905 267.435,153.572 267.5,156.5C 265.96,154.162 265.294,151.495 265.5,148.5 Z"/></g>
<g><path style="opacity:0.059" fill="#e4e4e4" d="M 357.5,155.5 C 356.662,155.842 356.328,156.508 356.5,157.5C 355.224,156.614 355.224,155.614 356.5,154.5C 357.107,154.624 357.44,154.957 357.5,155.5 Z"/></g>
<g><path style="opacity:0.871" fill="#858585" d="M 358.5,155.5 C 362.534,155.517 366.201,156.517 369.5,158.5C 365.573,158.074 361.907,157.074 358.5,155.5 Z"/></g>
<g><path style="opacity:0.024" fill="#c6c6c6" d="M 392.5,155.5 C 395.152,155.41 397.485,156.076 399.5,157.5C 396.848,157.59 394.515,156.924 392.5,155.5 Z"/></g>
<g><path style="opacity:0.694" fill="#8f8f8f" d="M 338.5,149.5 C 339.525,149.897 339.692,150.563 339,151.5C 335.902,155.107 332.402,158.107 328.5,160.5C 331.833,156.833 335.167,153.167 338.5,149.5 Z"/></g>
<g><path style="opacity:0.016" fill="#c9c9c9" d="M 399.5,157.5 C 402.152,157.41 404.485,158.076 406.5,159.5C 403.848,159.59 401.515,158.924 399.5,157.5 Z"/></g>
<g><path style="opacity:0.486" fill="#a5a5a5" d="M 178.5,151.5 C 179.768,153.905 180.435,156.572 180.5,159.5C 178.96,157.162 178.294,154.495 178.5,151.5 Z"/></g>
<g><path style="opacity:0.745" fill="#949494" d="M 369.5,158.5 C 371.898,158.259 373.898,158.926 375.5,160.5C 373.214,160.405 371.214,159.738 369.5,158.5 Z"/></g>
<g><path style="opacity:0.016" fill="#cbcbcb" d="M 406.5,159.5 C 409.152,159.41 411.485,160.076 413.5,161.5C 410.848,161.59 408.515,160.924 406.5,159.5 Z"/></g>
<g><path style="opacity:0.478" fill="#ababab" d="M 98.5,159.5 C 100.786,159.595 102.786,160.262 104.5,161.5C 102.102,161.741 100.102,161.074 98.5,159.5 Z"/></g>
<g><path style="opacity:0.78" fill="#898989" d="M 376.5,160.5 C 379.152,160.41 381.485,161.076 383.5,162.5C 380.848,162.59 378.515,161.924 376.5,160.5 Z"/></g>
<g><path style="opacity:0.016" fill="#c4c4c4" d="M 104.5,161.5 C 107.152,161.41 109.485,162.076 111.5,163.5C 108.848,163.59 106.515,162.924 104.5,161.5 Z"/></g>
<g><path style="opacity:0.098" fill="#c0c0c0" d="M 258.5,158.5 C 259.768,160.905 260.435,163.572 260.5,166.5C 258.96,164.162 258.294,161.495 258.5,158.5 Z"/></g>
<g><path style="opacity:0.624" fill="#a2a2a2" d="M 356.5,159.5 C 358.04,161.838 358.706,164.505 358.5,167.5C 357.232,165.095 356.565,162.428 356.5,159.5 Z"/></g>
<g><path style="opacity:0.788" fill="#848484" d="M 383.5,162.5 C 386.152,162.41 388.485,163.076 390.5,164.5C 387.848,164.59 385.515,163.924 383.5,162.5 Z"/></g>
<g><path style="opacity:0.004" fill="#c6c6c6" d="M 111.5,163.5 C 114.152,163.41 116.485,164.076 118.5,165.5C 115.848,165.59 113.515,164.924 111.5,163.5 Z"/></g>
<g><path style="opacity:0.004" fill="#d4d4d4" d="M 217.5,162.5 C 216.738,164.262 215.404,165.262 213.5,165.5C 214.262,163.738 215.596,162.738 217.5,162.5 Z"/></g>
<g><path style="opacity:0.604" fill="#898989" d="M 267.5,156.5 C 268.768,158.905 269.435,161.572 269.5,164.5C 267.96,162.162 267.294,159.495 267.5,156.5 Z"/></g>
<g><path style="opacity:0.537" fill="#a6a6a6" d="M 81.5,161.5 C 84.9024,170.105 87.2357,179.105 88.5,188.5C 85.7223,179.726 83.389,170.726 81.5,161.5 Z"/></g>
<g><path style="opacity:0.608" fill="#979797" d="M 171.5,163.5 C 173.163,165.438 173.829,167.772 173.5,170.5C 172.388,168.401 171.721,166.067 171.5,163.5 Z"/></g>
<g><path style="opacity:0.839" fill="#878787" d="M 397.5,166.5 C 401.162,166.723 404.495,167.723 407.5,169.5C 403.838,169.277 400.505,168.277 397.5,166.5 Z"/></g>
<g><path style="opacity:0.545" fill="#7b7b7b" d="M 95.5,168.5 C 94.5084,168.328 93.8417,168.662 93.5,169.5C 92.1153,168.698 92.282,168.031 94,167.5C 94.7648,167.57 95.2648,167.903 95.5,168.5 Z"/></g>
<g><path style="opacity:0.808" fill="#9a9a9a" d="M 95.5,168.5 C 98.9164,168.528 101.916,169.528 104.5,171.5C 101.215,171.072 98.2154,170.072 95.5,168.5 Z"/></g>
<g><path style="opacity:0.016" fill="#d1d1d1" d="M 335.5,167.5 C 335.027,168.906 334.027,169.573 332.5,169.5C 332.973,168.094 333.973,167.427 335.5,167.5 Z"/></g>
<g><path style="opacity:0.106" fill="#b8b8b8" d="M 260.5,166.5 C 261.768,168.905 262.435,171.572 262.5,174.5C 260.96,172.162 260.294,169.495 260.5,166.5 Z"/></g>
<g><path style="opacity:0.702" fill="#9f9f9f" d="M 407.5,169.5 C 409.898,169.259 411.898,169.926 413.5,171.5C 411.214,171.405 409.214,170.738 407.5,169.5 Z"/></g>
<g><path style="opacity:0.008" fill="#c3c3c3" d="M 332.5,169.5 C 332.5,170.833 331.833,171.5 330.5,171.5C 330.833,170.5 331.5,169.833 332.5,169.5 Z"/></g>
<g><path style="opacity:0.659" fill="#a6a6a6" d="M 105.5,171.5 C 107.898,171.259 109.898,171.926 111.5,173.5C 109.214,173.405 107.214,172.738 105.5,171.5 Z"/></g>
<g><path style="opacity:0.682" fill="#969696" d="M 182.5,168.5 C 184.04,170.838 184.706,173.505 184.5,176.5C 183.232,174.095 182.565,171.428 182.5,168.5 Z"/></g>
<g><path style="opacity:0.576" fill="#919191" d="M 269.5,164.5 C 270.768,166.905 271.435,169.572 271.5,172.5C 269.96,170.162 269.294,167.495 269.5,164.5 Z"/></g>
<g><path style="opacity:0.725" fill="#999999" d="M 414.5,171.5 C 416.898,171.259 418.898,171.926 420.5,173.5C 418.214,173.405 416.214,172.738 414.5,171.5 Z"/></g>
<g><path style="opacity:0.671" fill="#9f9f9f" d="M 112.5,173.5 C 115.152,173.41 117.485,174.076 119.5,175.5C 116.848,175.59 114.515,174.924 112.5,173.5 Z"/></g>
<g><path style="opacity:0.745" fill="#979797" d="M 421.5,173.5 C 423.898,173.259 425.898,173.926 427.5,175.5C 425.214,175.405 423.214,174.738 421.5,173.5 Z"/></g>
<g><path style="opacity:0.455" fill="#afafaf" d="M 349.5,171.5 C 351.074,173.102 351.741,175.102 351.5,177.5C 350.262,175.786 349.595,173.786 349.5,171.5 Z"/></g>
<g><path style="opacity:0.743" fill="#757575" d="M 447.5,171.5 C 448.993,172.312 449.66,173.645 449.5,175.5C 449.48,176.726 449.147,177.726 448.5,178.5C 448.552,176.097 448.219,173.764 447.5,171.5 Z"/></g>
<g><path style="opacity:0.686" fill="#a4a4a4" d="M 119.5,175.5 C 121.898,175.259 123.898,175.926 125.5,177.5C 123.214,177.405 121.214,176.738 119.5,175.5 Z"/></g>
<g><path style="opacity:0.635" fill="#9f9f9f" d="M 195.5,170.5 C 192.679,174.666 189.012,177.666 184.5,179.5C 184.5,178.5 184.5,177.5 184.5,176.5C 185.222,176.918 185.722,177.584 186,178.5C 188.766,175.223 191.933,172.557 195.5,170.5 Z"/></g>
<g><path style="opacity:0.973" fill="#727272" d="M 428.5,175.5 C 431.01,175.054 433.01,175.72 434.5,177.5C 432.214,177.405 430.214,176.738 428.5,175.5 Z"/></g>
<g><path style="opacity:0.612" fill="#8a8a8a" d="M 126.5,177.5 C 129.228,177.171 131.562,177.837 133.5,179.5C 130.848,179.59 128.515,178.924 126.5,177.5 Z"/></g>
<g><path style="opacity:0.016" fill="#c8c8c8" d="M 262.5,175.5 C 264.04,177.838 264.706,180.505 264.5,183.5C 263.232,181.095 262.565,178.428 262.5,175.5 Z"/></g>
<g><path style="opacity:0.71" fill="#9e9e9e" d="M 133.5,179.5 C 135.898,179.259 137.898,179.926 139.5,181.5C 137.214,181.405 135.214,180.738 133.5,179.5 Z"/></g>
<g><path style="opacity:0.029" fill="#c0c0c0" d="M 175.5,178.5 C 176.434,179.568 176.768,180.901 176.5,182.5C 173.215,182.072 170.215,181.072 167.5,179.5C 170.199,179.466 172.699,180.133 175,181.5C 175.483,180.552 175.649,179.552 175.5,178.5 Z"/></g>
<g><path style="opacity:0.549" fill="#949494" d="M 271.5,172.5 C 272.768,174.905 273.435,177.572 273.5,180.5C 271.96,178.162 271.294,175.495 271.5,172.5 Z"/></g>
<g><path style="opacity:0.086" fill="#bbbbbb" d="M 351.5,177.5 C 352.768,179.905 353.435,182.572 353.5,185.5C 351.96,183.162 351.294,180.495 351.5,177.5 Z"/></g>
<g><path style="opacity:0.686" fill="#868686" d="M 435.5,178.5 C 433.761,181.243 431.427,183.243 428.5,184.5C 430.239,181.757 432.573,179.757 435.5,178.5 Z"/></g>
<g><path style="opacity:0.616" fill="#828282" d="M 140.5,181.5 C 143.228,181.171 145.562,181.837 147.5,183.5C 144.848,183.59 142.515,182.924 140.5,181.5 Z"/></g>
<g><path style="opacity:0.6" fill="#8d8d8d" d="M 360.5,175.5 C 361.768,177.905 362.435,180.572 362.5,183.5C 360.96,181.162 360.294,178.495 360.5,175.5 Z"/></g>
<g><path style="opacity:0.82" fill="#777777" d="M 151.5,184.5 C 154.152,184.41 156.485,185.076 158.5,186.5C 155.848,186.59 153.515,185.924 151.5,184.5 Z"/></g>
<g><path style="opacity:0.835" fill="#757575" d="M 158.5,186.5 C 161.152,186.41 163.485,187.076 165.5,188.5C 162.848,188.59 160.515,187.924 158.5,186.5 Z"/></g>
<g><path style="opacity:0.02" fill="#c4c4c4" d="M 195.5,187.5 C 198.152,187.41 200.485,188.076 202.5,189.5C 199.848,189.59 197.515,188.924 195.5,187.5 Z"/></g>
<g><path style="opacity:0.525" fill="#9a9a9a" d="M 273.5,180.5 C 274.768,182.905 275.435,185.572 275.5,188.5C 273.96,186.162 273.294,183.495 273.5,180.5 Z"/></g>
<g><path style="opacity:0.875" fill="#787878" d="M 165.5,188.5 C 168.152,188.41 170.485,189.076 172.5,190.5C 169.772,190.829 167.438,190.163 165.5,188.5 Z"/></g>
<g><path style="opacity:0.016" fill="#c6c6c6" d="M 202.5,189.5 C 205.152,189.41 207.485,190.076 209.5,191.5C 206.848,191.59 204.515,190.924 202.5,189.5 Z"/></g>
<g><path style="opacity:0.831" fill="#707070" d="M 310.5,178.5 C 305.443,184.559 299.776,189.893 293.5,194.5C 298.557,188.441 304.224,183.107 310.5,178.5 Z"/></g>
<g><path style="opacity:0.518" fill="#aaaaaa" d="M 353.5,187.5 C 355.074,189.102 355.741,191.102 355.5,193.5C 354.262,191.786 353.595,189.786 353.5,187.5 Z"/></g>
<g><path style="opacity:0.91" fill="#4b4b4b" d="M 425.5,187.5 C 423.833,191.167 421.167,193.833 417.5,195.5C 419.833,192.5 422.5,189.833 425.5,187.5 Z"/></g>
<g><path style="opacity:0.741" fill="#9b9b9b" d="M 275.5,188.5 C 277.593,193.878 278.927,199.545 279.5,205.5C 277.407,200.122 276.073,194.455 275.5,188.5 Z"/></g>
<g><path style="opacity:0.02" fill="#d1d1d1" d="M 435.5,191.5 C 435.027,192.906 434.027,193.573 432.5,193.5C 432.973,192.094 433.973,191.427 435.5,191.5 Z"/></g>
<g><path style="opacity:0.69" fill="#949494" d="M 98.5,190.5 C 100.04,192.838 100.706,195.505 100.5,198.5C 99.2318,196.095 98.5651,193.428 98.5,190.5 Z"/></g>
<g><path style="opacity:0.008" fill="#c5c5c5" d="M 432.5,193.5 C 432.5,194.833 431.833,195.5 430.5,195.5C 430.833,194.5 431.5,193.833 432.5,193.5 Z"/></g>
<g><path style="opacity:0.041" fill="#ededed" d="M 191.5,196.5 C 190.662,196.842 190.328,197.508 190.5,198.5C 189.224,197.614 189.224,196.614 190.5,195.5C 191.107,195.624 191.44,195.957 191.5,196.5 Z"/></g>
<g><path style="opacity:0.824" fill="#959595" d="M 193.5,196.5 C 196.916,196.528 199.916,197.528 202.5,199.5C 199.215,199.072 196.215,198.072 193.5,196.5 Z"/></g>
<g><path style="opacity:0.016" fill="#c0c0c0" d="M 305.5,195.5 C 305.5,196.833 304.833,197.5 303.5,197.5C 303.833,196.5 304.5,195.833 305.5,195.5 Z"/></g>
<g><path style="opacity:0.004" fill="#c3c3c3" d="M 303.5,197.5 C 303.5,198.833 302.833,199.5 301.5,199.5C 301.833,198.5 302.5,197.833 303.5,197.5 Z"/></g>
<g><path style="opacity:0.671" fill="#a6a6a6" d="M 203.5,199.5 C 205.898,199.259 207.898,199.926 209.5,201.5C 207.214,201.405 205.214,200.738 203.5,199.5 Z"/></g>
<g><path style="opacity:0.729" fill="#888888" d="M 365.5,196.5 C 367.04,198.838 367.706,201.505 367.5,204.5C 366.232,202.095 365.565,199.428 365.5,196.5 Z"/></g>
<g><path style="opacity:0.412" fill="#acacac" d="M 287.5,200.5 C 287.167,201.5 286.5,202.167 285.5,202.5C 285.5,201.167 286.167,200.5 287.5,200.5 Z"/></g>
<g><path style="opacity:0.678" fill="#a5a5a5" d="M 210.5,201.5 C 212.898,201.259 214.898,201.926 216.5,203.5C 214.214,203.405 212.214,202.738 210.5,201.5 Z"/></g>
<g><path style="opacity:0.051" fill="#b5b5b5" d="M 247.5,202.5 C 250.152,202.41 252.485,203.076 254.5,204.5C 251.848,204.59 249.515,203.924 247.5,202.5 Z"/></g>
<g><path style="opacity:0.694" fill="#888888" d="M 169.5,195.5 C 164.443,201.559 158.776,206.893 152.5,211.5C 157.557,205.441 163.224,200.107 169.5,195.5 Z"/></g>
<g><path style="opacity:0.698" fill="#9d9d9d" d="M 217.5,203.5 C 219.898,203.259 221.898,203.926 223.5,205.5C 221.214,205.405 219.214,204.738 217.5,203.5 Z"/></g>
<g><path style="opacity:0.49" fill="#b9b9b9" d="M 285.5,202.5 C 284.162,204.67 282.328,206.336 280,207.5C 279.536,206.906 279.369,206.239 279.5,205.5C 281.5,204.5 283.5,203.5 285.5,202.5 Z"/></g>
<g><path style="opacity:0.435" fill="#aeaeae" d="M 100.5,198.5 C 101.924,200.515 102.59,202.848 102.5,205.5C 101.076,203.485 100.41,201.152 100.5,198.5 Z"/></g>
<g><path style="opacity:0.839" fill="#848484" d="M 190.5,200.5 C 191.612,202.599 192.279,204.933 192.5,207.5C 190.837,205.562 190.171,203.228 190.5,200.5 Z"/></g>
<g><path style="opacity:0.029" fill="#bbbbbb" d="M 180.5,199.5 C 182.37,202.809 183.37,206.475 183.5,210.5C 181.882,207.112 180.882,203.446 180.5,199.5 Z"/></g>
<g><path style="opacity:0.722" fill="#959595" d="M 224.5,205.5 C 227.152,205.41 229.485,206.076 231.5,207.5C 228.848,207.59 226.515,206.924 224.5,205.5 Z"/></g>
<g><path style="opacity:0.663" fill="#8b8b8b" d="M 414.5,198.5 C 410.441,203.562 405.774,207.895 400.5,211.5C 404.559,206.438 409.226,202.105 414.5,198.5 Z"/></g>
<g><path style="opacity:0.745" fill="#959595" d="M 231.5,207.5 C 234.152,207.41 236.485,208.076 238.5,209.5C 235.848,209.59 233.515,208.924 231.5,207.5 Z"/></g>
<g><path style="opacity:0.71" fill="#a2a2a2" d="M 367.5,204.5 C 369.924,210.526 371.591,216.859 372.5,223.5C 370.076,217.474 368.409,211.141 367.5,204.5 Z"/></g>
<g><path style="opacity:0.522" fill="#9e9e9e" d="M 265.5,207.5 C 266.833,207.5 268.167,207.5 269.5,207.5C 269.833,208.833 270.167,208.833 270.5,207.5C 271.885,208.302 271.718,208.969 270,209.5C 268.272,209.101 266.772,208.434 265.5,207.5 Z"/></g>
<g><path style="opacity:0.643" fill="#9c9c9c" d="M 102.5,206.5 C 104.04,208.838 104.706,211.505 104.5,214.5C 103.232,212.095 102.565,209.428 102.5,206.5 Z"/></g>
<g><path style="opacity:0.831" fill="#767676" d="M 242.5,210.5 C 245.152,210.41 247.485,211.076 249.5,212.5C 246.848,212.59 244.515,211.924 242.5,210.5 Z"/></g>
<g><path style="opacity:0.847" fill="#797979" d="M 249.5,212.5 C 251.898,212.259 253.898,212.926 255.5,214.5C 253.214,214.405 251.214,213.738 249.5,212.5 Z"/></g>
<g><path style="opacity:0.041" fill="#bebebe" d="M 183.5,210.5 C 184.768,212.905 185.435,215.572 185.5,218.5C 183.96,216.162 183.294,213.495 183.5,210.5 Z"/></g>
<g><path style="opacity:0.055" fill="#e7e7e7" d="M 288.5,212.5 C 288.5,213.167 288.5,213.833 288.5,214.5C 286.067,214.214 286.067,213.548 288.5,212.5 Z"/></g>
<g><path style="opacity:0.008" fill="#d3d3d3" d="M 164.5,213.5 C 163.738,215.262 162.404,216.262 160.5,216.5C 161.262,214.738 162.596,213.738 164.5,213.5 Z"/></g>
<g><path style="opacity:0.871" fill="#888888" d="M 256.5,214.5 C 259.916,214.528 262.916,215.528 265.5,217.5C 262.146,217.253 259.146,216.253 256.5,214.5 Z"/></g>
<g><path style="opacity:0.612" fill="#8d8d8d" d="M 192.5,208.5 C 193.768,210.905 194.435,213.572 194.5,216.5C 192.96,214.162 192.294,211.495 192.5,208.5 Z"/></g>
<g><path style="opacity:0.871" fill="#575757" d="M 400.5,211.5 C 399.167,214.833 396.833,217.167 393.5,218.5C 395.5,215.833 397.833,213.5 400.5,211.5 Z"/></g>
<g><path style="opacity:0.624" fill="#a2a2a2" d="M 104.5,214.5 C 106.04,216.838 106.706,219.505 106.5,222.5C 105.232,220.095 104.565,217.428 104.5,214.5 Z"/></g>
<g><path style="opacity:0.376" fill="#c8c8c8" d="M 265.5,217.5 C 266.675,217.281 267.675,217.614 268.5,218.5C 268.376,219.107 268.043,219.44 267.5,219.5C 266.833,218.833 266.167,218.167 265.5,217.5 Z"/></g>
<g><path style="opacity:0.004" fill="#c9c9c9" d="M 309.5,220.5 C 312.152,220.41 314.485,221.076 316.5,222.5C 313.848,222.59 311.515,221.924 309.5,220.5 Z"/></g>
<g><path style="opacity:0.094" fill="#bababa" d="M 185.5,218.5 C 186.768,220.905 187.435,223.572 187.5,226.5C 185.96,224.162 185.294,221.495 185.5,218.5 Z"/></g>
<g><path style="opacity:0.408" fill="#9d9d9d" d="M 285.5,223.5 C 285.242,225.19 285.242,227.19 285.5,229.5C 284.035,227.314 283.702,224.981 284.5,222.5C 285.107,222.624 285.44,222.957 285.5,223.5 Z"/></g>
<g><path style="opacity:0.016" fill="#cbcbcb" d="M 316.5,222.5 C 319.152,222.41 321.485,223.076 323.5,224.5C 320.848,224.59 318.515,223.924 316.5,222.5 Z"/></g>
<g><path style="opacity:0.588" fill="#8e8e8e" d="M 194.5,216.5 C 195.768,218.905 196.435,221.572 196.5,224.5C 194.96,222.162 194.294,219.495 194.5,216.5 Z"/></g>
<g><path style="opacity:0.773" fill="#878787" d="M 286.5,223.5 C 288.898,223.259 290.898,223.926 292.5,225.5C 290.214,225.405 288.214,224.738 286.5,223.5 Z"/></g>
<g><path style="opacity:0.557" fill="#949494" d="M 142.5,221.5 C 138.441,226.562 133.774,230.895 128.5,234.5C 132.559,229.438 137.226,225.105 142.5,221.5 Z"/></g>
<g><path style="opacity:0.012" fill="#cdcdcd" d="M 323.5,224.5 C 326.152,224.41 328.485,225.076 330.5,226.5C 327.848,226.59 325.515,225.924 323.5,224.5 Z"/></g>
<g><path style="opacity:0.18" fill="#dfdfdf" d="M 273.5,226.5 C 274.623,225.243 275.289,225.576 275.5,227.5C 274.833,227.167 274.167,226.833 273.5,226.5 Z"/></g>
<g><path style="opacity:0.776" fill="#828282" d="M 293.5,225.5 C 296.152,225.41 298.485,226.076 300.5,227.5C 297.848,227.59 295.515,226.924 293.5,225.5 Z"/></g>
<g><path style="opacity:0.604" fill="#888888" d="M 263.5,223.5 C 259.441,228.562 254.774,232.895 249.5,236.5C 253.559,231.438 258.226,227.105 263.5,223.5 Z"/></g>
<g><path style="opacity:0.012" fill="#cbcbcb" d="M 330.5,226.5 C 333.152,226.41 335.485,227.076 337.5,228.5C 334.848,228.59 332.515,227.924 330.5,226.5 Z"/></g>
<g><path style="opacity:0.051" fill="#bcbcbc" d="M 97.5,224.5 C 98.7682,226.905 99.4349,229.572 99.5,232.5C 97.9605,230.162 97.2938,227.495 97.5,224.5 Z"/></g>
<g><path style="opacity:0.576" fill="#989898" d="M 387.5,224.5 C 384.437,228.566 380.771,231.899 376.5,234.5C 379.563,230.434 383.229,227.101 387.5,224.5 Z"/></g>
<g><path style="opacity:0.733" fill="#717171" d="M 300.5,227.5 C 303.228,227.171 305.562,227.837 307.5,229.5C 304.848,229.59 302.515,228.924 300.5,227.5 Z"/></g>
<g><path style="opacity:0.627" fill="#8a8a8a" d="M 106.5,222.5 C 107.768,224.905 108.435,227.572 108.5,230.5C 106.96,228.162 106.294,225.495 106.5,222.5 Z"/></g>
<g><path style="opacity:0.827" fill="#7a7a7a" d="M 307.5,229.5 C 310.152,229.41 312.485,230.076 314.5,231.5C 311.848,231.59 309.515,230.924 307.5,229.5 Z"/></g>
<g><path style="opacity:0.553" fill="#999999" d="M 196.5,224.5 C 197.768,226.905 198.435,229.572 198.5,232.5C 196.96,230.162 196.294,227.495 196.5,224.5 Z"/></g>
<g><path style="opacity:0.835" fill="#7b7b7b" d="M 314.5,231.5 C 317.152,231.41 319.485,232.076 321.5,233.5C 318.848,233.59 316.515,232.924 314.5,231.5 Z"/></g>
<g><path style="opacity:0.62" fill="#a5a5a5" d="M 285.5,229.5 C 287.04,231.838 287.706,234.505 287.5,237.5C 286.232,235.095 285.565,232.428 285.5,229.5 Z"/></g>
<g><path style="opacity:0.855" fill="#8a8a8a" d="M 321.5,233.5 C 324.916,233.528 327.916,234.528 330.5,236.5C 327.215,236.072 324.215,235.072 321.5,233.5 Z"/></g>
<g><path style="opacity:0.102" fill="#dbdbdb" d="M 374.5,231.5 C 375.167,232.5 375.833,233.5 376.5,234.5C 376.44,235.043 376.107,235.376 375.5,235.5C 374.571,234.311 374.238,232.978 374.5,231.5 Z"/></g>
<g><path style="opacity:0.722" fill="#989898" d="M 331.5,236.5 C 333.898,236.259 335.898,236.926 337.5,238.5C 335.214,238.405 333.214,237.738 331.5,236.5 Z"/></g>
<g><path style="opacity:0.639" fill="#898989" d="M 365.5,234.5 C 366.776,235.386 366.776,236.386 365.5,237.5C 363.974,237.006 362.641,236.339 361.5,235.5C 363.099,235.768 364.432,235.434 365.5,234.5 Z"/></g>
<g><path style="opacity:0.482" fill="#b5b5b5" d="M 99.5,234.5 C 101.074,236.102 101.741,238.102 101.5,240.5C 100.262,238.786 99.595,236.786 99.5,234.5 Z"/></g>
<g><path style="opacity:0.09" fill="#bbbbbb" d="M 277.5,235.5 C 279.102,239.239 280.102,243.239 280.5,247.5C 278.584,243.837 277.584,239.837 277.5,235.5 Z"/></g>
<g><path style="opacity:0.737" fill="#969696" d="M 338.5,238.5 C 340.898,238.259 342.898,238.926 344.5,240.5C 342.214,240.405 340.214,239.738 338.5,238.5 Z"/></g>
<g><path style="opacity:0.722" fill="#8b8b8b" d="M 199.5,237.5 C 201.04,239.838 201.706,242.505 201.5,245.5C 200.232,243.095 199.565,240.428 199.5,237.5 Z"/></g>
<g><path style="opacity:0.733" fill="#979797" d="M 345.5,240.5 C 347.898,240.259 349.898,240.926 351.5,242.5C 349.214,242.405 347.214,241.738 345.5,240.5 Z"/></g>
<g><path style="opacity:0.561" fill="#919191" d="M 109.5,234.5 C 110.768,236.905 111.435,239.572 111.5,242.5C 109.96,240.162 109.294,237.495 109.5,234.5 Z"/></g>
<g><path style="opacity:0.016" fill="#d3d3d3" d="M 136.5,240.5 C 136.027,241.906 135.027,242.573 133.5,242.5C 133.973,241.094 134.973,240.427 136.5,240.5 Z"/></g>
<g><path style="opacity:0.02" fill="#d3d3d3" d="M 259.5,240.5 C 259.027,241.906 258.027,242.573 256.5,242.5C 256.973,241.094 257.973,240.427 259.5,240.5 Z"/></g>
<g><path style="opacity:0.929" fill="#444444" d="M 249.5,236.5 C 247.5,240.5 244.5,243.5 240.5,245.5C 243.167,242.167 246.167,239.167 249.5,236.5 Z"/></g>
<g><path style="opacity:0.004" fill="#c6c6c6" d="M 133.5,242.5 C 133.5,243.833 132.833,244.5 131.5,244.5C 131.833,243.5 132.5,242.833 133.5,242.5 Z"/></g>
<g><path style="opacity:0.008" fill="#c4c4c4" d="M 256.5,242.5 C 256.5,243.833 255.833,244.5 254.5,244.5C 254.833,243.5 255.5,242.833 256.5,242.5 Z"/></g>
<g><path style="opacity:0.686" fill="#787878" d="M 352.5,242.5 C 355.228,242.171 357.562,242.837 359.5,244.5C 356.848,244.59 354.515,243.924 352.5,242.5 Z"/></g>
<g><path style="opacity:0.62" fill="#8c8c8c" d="M 287.5,237.5 C 288.768,239.905 289.435,242.572 289.5,245.5C 287.96,243.162 287.294,240.495 287.5,237.5 Z"/></g>
<g><path style="opacity:0.976" fill="#6f6f6f" d="M 359.5,244.5 C 361.167,244.5 362.833,244.5 364.5,244.5C 364.737,245.791 364.404,246.791 363.5,247.5C 362.41,246.143 361.076,245.143 359.5,244.5 Z"/></g>
<g><path style="opacity:0.004" fill="#d6d6d6" d="M 381.5,243.5 C 381.027,244.906 380.027,245.573 378.5,245.5C 378.973,244.094 379.973,243.427 381.5,243.5 Z"/></g>
<g><path style="opacity:0.502" fill="#a7a7a7" d="M 101.5,242.5 C 103.074,244.102 103.741,246.102 103.5,248.5C 102.262,246.786 101.595,244.786 101.5,242.5 Z"/></g>
<g><path style="opacity:0.404" fill="#b1b1b1" d="M 240.5,245.5 C 240.167,246.5 239.5,247.167 238.5,247.5C 238.5,246.167 239.167,245.5 240.5,245.5 Z"/></g>
<g><path style="opacity:0.149" fill="#c3c3c3" d="M 112.5,246.5 C 113.391,247.11 114.391,247.443 115.5,247.5C 113.694,250.338 112.694,250.005 112.5,246.5 Z"/></g>
<g><path style="opacity:0.694" fill="#909090" d="M 201.5,245.5 C 203.04,247.838 203.706,250.505 203.5,253.5C 202.232,251.095 201.565,248.428 201.5,245.5 Z"/></g>
<g><path style="opacity:0.49" fill="#acacac" d="M 280.5,249.5 C 282.074,251.102 282.741,253.102 282.5,255.5C 281.262,253.786 280.595,251.786 280.5,249.5 Z"/></g>
<g><path style="opacity:0.529" fill="#a7a7a7" d="M 103.5,250.5 C 105.074,252.102 105.741,254.102 105.5,256.5C 104.262,254.786 103.595,252.786 103.5,250.5 Z"/></g>
<g><path style="opacity:0.737" fill="#888888" d="M 236.5,249.5 C 233.437,253.566 229.771,256.899 225.5,259.5C 228.563,255.434 232.229,252.101 236.5,249.5 Z"/></g>
<g><path style="opacity:0.722" fill="#8c8c8c" d="M 361.5,249.5 C 357.773,254.23 353.44,258.23 348.5,261.5C 352.227,256.77 356.56,252.77 361.5,249.5 Z"/></g>
<g><path style="opacity:0.027" fill="#bfbfbf" d="M 134.5,260.5 C 137.152,260.41 139.485,261.076 141.5,262.5C 138.848,262.59 136.515,261.924 134.5,260.5 Z"/></g>
<g><path style="opacity:0.706" fill="#8c8c8c" d="M 203.5,253.5 C 205.258,256.854 206.258,260.521 206.5,264.5C 204.517,261.201 203.517,257.534 203.5,253.5 Z"/></g>
<g><path style="opacity:0.514" fill="#a5a5a5" d="M 282.5,257.5 C 284.074,259.102 284.741,261.102 284.5,263.5C 283.262,261.786 282.595,259.786 282.5,257.5 Z"/></g>
<g><path style="opacity:0.027" fill="#bebebe" d="M 141.5,262.5 C 144.152,262.41 146.485,263.076 148.5,264.5C 145.848,264.59 143.515,263.924 141.5,262.5 Z"/></g>
<g><path style="opacity:0.839" fill="#656565" d="M 348.5,261.5 C 347.833,264.167 346.167,265.833 343.5,266.5C 344.833,264.5 346.5,262.833 348.5,261.5 Z"/></g>
<g><path style="opacity:0.8" fill="#7c7c7c" d="M 122.5,266.5 C 125.152,266.41 127.485,267.076 129.5,268.5C 126.848,268.59 124.515,267.924 122.5,266.5 Z"/></g>
<g><path style="opacity:0.02" fill="#d1d1d1" d="M 232.5,266.5 C 232.027,267.906 231.027,268.573 229.5,268.5C 229.973,267.094 230.973,266.427 232.5,266.5 Z"/></g>
<g><path style="opacity:0.831" fill="#7b7b7b" d="M 129.5,268.5 C 131.898,268.259 133.898,268.926 135.5,270.5C 133.214,270.405 131.214,269.738 129.5,268.5 Z"/></g>
<g><path style="opacity:0.929" fill="#4f4f4f" d="M 225.5,259.5 C 222.833,264.167 219.167,267.833 214.5,270.5C 217.833,266.5 221.5,262.833 225.5,259.5 Z"/></g>
<g><path style="opacity:0.008" fill="#c1c1c1" d="M 229.5,268.5 C 229.5,269.833 228.833,270.5 227.5,270.5C 227.833,269.5 228.5,268.833 229.5,268.5 Z"/></g>
<g><path style="opacity:0.722" fill="#888888" d="M 294.5,266.5 C 296.04,268.838 296.706,271.505 296.5,274.5C 295.232,272.095 294.565,269.428 294.5,266.5 Z"/></g>
<g><path style="opacity:0.012" fill="#c2c2c2" d="M 354.5,268.5 C 354.5,269.833 353.833,270.5 352.5,270.5C 352.833,269.5 353.5,268.833 354.5,268.5 Z"/></g>
<g><path style="opacity:0.694" fill="#939393" d="M 117.5,267.5 C 119.04,269.838 119.706,272.505 119.5,275.5C 118.232,273.095 117.565,270.428 117.5,267.5 Z"/></g>
<g><path style="opacity:0.855" fill="#838383" d="M 136.5,270.5 C 140.162,270.723 143.495,271.723 146.5,273.5C 142.838,273.277 139.505,272.277 136.5,270.5 Z"/></g>
<g><path style="opacity:0.573" fill="#959595" d="M 173.5,271.5 C 175.786,271.595 177.786,272.262 179.5,273.5C 177.102,273.741 175.102,273.074 173.5,271.5 Z"/></g>
<g><path style="opacity:0.016" fill="#c3c3c3" d="M 207.5,269.5 C 208.313,271.261 209.313,272.928 210.5,274.5C 209.923,275.773 209.257,275.773 208.5,274.5C 207.691,272.929 207.357,271.262 207.5,269.5 Z"/></g>
<g><path style="opacity:0.776" fill="#888888" d="M 146.5,273.5 C 149.152,273.41 151.485,274.076 153.5,275.5C 150.848,275.59 148.515,274.924 146.5,273.5 Z"/></g>
<g><path style="opacity:0.78" fill="#8b8b8b" d="M 153.5,275.5 C 155.898,275.259 157.898,275.926 159.5,277.5C 157.214,277.405 155.214,276.738 153.5,275.5 Z"/></g>
<g><path style="opacity:0.773" fill="#858585" d="M 160.5,277.5 C 163.152,277.41 165.485,278.076 167.5,279.5C 164.848,279.59 162.515,278.924 160.5,277.5 Z"/></g>
<g><path style="opacity:0.702" fill="#8e8e8e" d="M 296.5,274.5 C 298.04,276.838 298.706,279.505 298.5,282.5C 297.232,280.095 296.565,277.428 296.5,274.5 Z"/></g>
<g><path style="opacity:0.678" fill="#a4a4a4" d="M 119.5,275.5 C 121.749,280.497 123.083,285.83 123.5,291.5C 121.565,286.427 120.232,281.094 119.5,275.5 Z"/></g>
<g><path style="opacity:0.106" fill="#c5c5c5" d="M 198.5,271.5 C 199.768,273.905 200.435,276.572 200.5,279.5C 199.209,279.737 198.209,279.404 197.5,278.5C 198.376,278.631 199.043,278.298 199.5,277.5C 198.652,275.591 198.318,273.591 198.5,271.5 Z"/></g>
<g><path style="opacity:0.78" fill="#7f7f7f" d="M 167.5,279.5 C 170.152,279.41 172.485,280.076 174.5,281.5C 171.848,281.59 169.515,280.924 167.5,279.5 Z"/></g>
<g><path style="opacity:0.8" fill="#7c7c7c" d="M 174.5,281.5 C 177.152,281.41 179.485,282.076 181.5,283.5C 178.848,283.59 176.515,282.924 174.5,281.5 Z"/></g>
<g><path style="opacity:0.816" fill="#7a7a7a" d="M 181.5,283.5 C 184.152,283.41 186.485,284.076 188.5,285.5C 185.848,285.59 183.515,284.924 181.5,283.5 Z"/></g>
<g><path style="opacity:0.584" fill="#a3a3a3" d="M 215.5,282.5 C 216.167,283.167 216.833,283.833 217.5,284.5C 216.325,284.719 215.325,284.386 214.5,283.5C 214.624,282.893 214.957,282.56 215.5,282.5 Z"/></g>
<g><path style="opacity:0.682" fill="#959595" d="M 298.5,282.5 C 300.04,284.838 300.706,287.505 300.5,290.5C 299.232,288.095 298.565,285.428 298.5,282.5 Z"/></g>
<g><path style="opacity:0.761" fill="#868686" d="M 334.5,275.5 C 330.441,280.562 325.774,284.895 320.5,288.5C 324.559,283.438 329.226,279.105 334.5,275.5 Z"/></g>
<g><path style="opacity:0.761" fill="#686868" d="M 188.5,285.5 C 191.228,285.171 193.562,285.837 195.5,287.5C 192.848,287.59 190.515,286.924 188.5,285.5 Z"/></g>
<g><path style="opacity:0.565" fill="#a6a6a6" d="M 239.5,290.5 C 243.116,290.899 246.45,291.899 249.5,293.5C 245.786,293.41 242.452,292.41 239.5,290.5 Z"/></g>
<g><path style="opacity:0.041" fill="#cfcfcf" d="M 249.5,293.5 C 252.152,293.41 254.485,294.076 256.5,295.5C 253.848,295.59 251.515,294.924 249.5,293.5 Z"/></g>
<g><path style="opacity:0.024" fill="#d3d3d3" d="M 330.5,292.5 C 330.027,293.906 329.027,294.573 327.5,294.5C 327.973,293.094 328.973,292.427 330.5,292.5 Z"/></g>
<g><path style="opacity:0.025" fill="#dadada" d="M 204.5,295.5 C 203.833,295.5 203.167,295.5 202.5,295.5C 203.167,292.833 203.833,292.833 204.5,295.5 Z"/></g>
<g><path style="opacity:0.765" fill="#909090" d="M 219.5,294.5 C 221.898,294.259 223.898,294.926 225.5,296.5C 223.214,296.405 221.214,295.738 219.5,294.5 Z"/></g>
<g><path style="opacity:0.008" fill="#cacaca" d="M 256.5,295.5 C 258.898,295.259 260.898,295.926 262.5,297.5C 260.214,297.405 258.214,296.738 256.5,295.5 Z"/></g>
<g><path style="opacity:0.012" fill="#c3c3c3" d="M 327.5,294.5 C 327.5,295.833 326.833,296.5 325.5,296.5C 325.833,295.5 326.5,294.833 327.5,294.5 Z"/></g>
<g><path style="opacity:0.059" fill="#c2c2c2" d="M 114.5,293.5 C 115.768,295.905 116.435,298.572 116.5,301.5C 114.96,299.162 114.294,296.495 114.5,293.5 Z"/></g>
<g><path style="opacity:0.91" fill="#555555" d="M 195.5,287.5 C 196.525,287.897 196.692,288.563 196,289.5C 192.902,293.107 189.402,296.107 185.5,298.5C 188.833,294.833 192.167,291.167 195.5,287.5 Z"/></g>
<g><path style="opacity:0.792" fill="#7f7f7f" d="M 226.5,296.5 C 229.152,296.41 231.485,297.076 233.5,298.5C 230.848,298.59 228.515,297.924 226.5,296.5 Z"/></g>
<g><path style="opacity:0.455" fill="#adadad" d="M 300.5,290.5 C 301.924,292.515 302.59,294.848 302.5,297.5C 301.076,295.485 300.41,293.152 300.5,290.5 Z"/></g>
<g><path style="opacity:0.012" fill="#d5d5d5" d="M 201.5,296.5 C 201.027,297.906 200.027,298.573 198.5,298.5C 198.973,297.094 199.973,296.427 201.5,296.5 Z"/></g>
<g><path style="opacity:0.404" fill="#b4b4b4" d="M 311.5,297.5 C 311.167,298.5 310.5,299.167 309.5,299.5C 309.5,298.167 310.167,297.5 311.5,297.5 Z"/></g>
<g><path style="opacity:0.122" fill="#b5b5b5" d="M 204.5,295.5 C 205.768,297.905 206.435,300.572 206.5,303.5C 204.96,301.162 204.294,298.495 204.5,295.5 Z"/></g>
<g><path style="opacity:0.82" fill="#7a7a7a" d="M 233.5,298.5 C 236.152,298.41 238.485,299.076 240.5,300.5C 237.848,300.59 235.515,299.924 233.5,298.5 Z"/></g>
<g><path style="opacity:0.839" fill="#777777" d="M 240.5,300.5 C 243.152,300.41 245.485,301.076 247.5,302.5C 244.848,302.59 242.515,301.924 240.5,300.5 Z"/></g>
<g><path style="opacity:0.408" fill="#b3b3b3" d="M 182.5,301.5 C 182.167,302.5 181.5,303.167 180.5,303.5C 180.5,302.167 181.167,301.5 182.5,301.5 Z"/></g>
<g><path style="opacity:0.014" fill="#d4d4d4" d="M 309.5,299.5 C 308.162,301.67 306.328,303.336 304,304.5C 303.517,303.552 303.351,302.552 303.5,301.5C 304.117,301.611 304.617,301.944 305,302.5C 306.129,300.859 307.629,299.859 309.5,299.5 Z"/></g>
<g><path style="opacity:0.871" fill="#858585" d="M 247.5,302.5 C 250.916,302.528 253.916,303.528 256.5,305.5C 253.215,305.072 250.215,304.072 247.5,302.5 Z"/></g>
<g><path style="opacity:0.008" fill="#c3c3c3" d="M 280.5,302.5 C 283.152,302.41 285.485,303.076 287.5,304.5C 284.848,304.59 282.515,303.924 280.5,302.5 Z"/></g>
<g><path style="opacity:0.041" fill="#c4c4c4" d="M 116.5,301.5 C 117.768,303.905 118.435,306.572 118.5,309.5C 116.96,307.162 116.294,304.495 116.5,301.5 Z"/></g>
<g><path style="opacity:0.012" fill="#bdbdbd" d="M 287.5,304.5 C 290.041,305.103 292.374,305.103 294.5,304.5C 295.043,304.56 295.376,304.893 295.5,305.5C 292.582,306.713 289.915,306.379 287.5,304.5 Z"/></g>
<g><path style="opacity:0.741" fill="#969696" d="M 257.5,305.5 C 259.898,305.259 261.898,305.926 263.5,307.5C 261.214,307.405 259.214,306.738 257.5,305.5 Z"/></g>
<g><path style="opacity:0.745" fill="#919191" d="M 264.5,307.5 C 266.898,307.259 268.898,307.926 270.5,309.5C 268.214,309.405 266.214,308.738 264.5,307.5 Z"/></g>
<g><path style="opacity:0.549" fill="#a4a4a4" d="M 206.5,305.5 C 209.902,314.105 212.236,323.105 213.5,332.5C 210.722,323.726 208.389,314.726 206.5,305.5 Z"/></g>
<g><path style="opacity:0.529" fill="#9a9a9a" d="M 215.5,301.5 C 216.768,303.905 217.435,306.572 217.5,309.5C 215.96,307.162 215.294,304.495 215.5,301.5 Z"/></g>
<g><path style="opacity:0.635" fill="#8b8b8b" d="M 178.5,305.5 C 174.773,310.23 170.44,314.23 165.5,317.5C 169.227,312.77 173.56,308.77 178.5,305.5 Z"/></g>
<g><path style="opacity:0.761" fill="#8f8f8f" d="M 271.5,309.5 C 273.898,309.259 275.898,309.926 277.5,311.5C 275.214,311.405 273.214,310.738 271.5,309.5 Z"/></g>
<g><path style="opacity:0.804" fill="#818181" d="M 278.5,311.5 C 281.152,311.41 283.485,312.076 285.5,313.5C 282.848,313.59 280.515,312.924 278.5,311.5 Z"/></g>
<g><path style="opacity:0.094" fill="#bfbfbf" d="M 118.5,309.5 C 119.768,311.905 120.435,314.572 120.5,317.5C 118.96,315.162 118.294,312.495 118.5,309.5 Z"/></g>
<g><path style="opacity:0.012" fill="#d4d4d4" d="M 303.5,318.5 C 303.027,319.906 302.027,320.573 300.5,320.5C 300.973,319.094 301.973,318.427 303.5,318.5 Z"/></g>
<g><path style="opacity:0.106" fill="#b8b8b8" d="M 120.5,317.5 C 121.768,319.905 122.435,322.572 122.5,325.5C 120.96,323.162 120.294,320.495 120.5,317.5 Z"/></g>
<g><path style="opacity:0.871" fill="#565656" d="M 165.5,317.5 C 164.833,320.167 163.167,321.833 160.5,322.5C 161.833,320.5 163.5,318.833 165.5,317.5 Z"/></g>
<g><path style="opacity:0.969" fill="#494949" d="M 288.5,314.5 C 289.833,314.5 291.167,314.5 292.5,314.5C 291.269,318.734 288.602,321.734 284.5,323.5C 286.628,320.87 288.961,318.37 291.5,316C 290.263,315.768 289.263,315.268 288.5,314.5 Z"/></g>
<g><path style="opacity:0.478" fill="#a4a4a4" d="M 219.5,317.5 C 220.768,319.905 221.435,322.572 221.5,325.5C 219.96,323.162 219.294,320.495 219.5,317.5 Z"/></g>
<g><path style="opacity:0.008" fill="#c2c2c2" d="M 171.5,324.5 C 171.5,325.833 170.833,326.5 169.5,326.5C 169.833,325.5 170.5,324.833 171.5,324.5 Z"/></g>
<g><path style="opacity:0.125" fill="#b2b2b2" d="M 122.5,325.5 C 123.768,327.905 124.435,330.572 124.5,333.5C 122.96,331.162 122.294,328.495 122.5,325.5 Z"/></g>
<g><path style="opacity:0.549" fill="#969696" d="M 131.5,323.5 C 132.768,325.905 133.435,328.572 133.5,331.5C 131.96,329.162 131.294,326.495 131.5,323.5 Z"/></g>
<g><path style="opacity:0.667" fill="#8b8b8b" d="M 282.5,325.5 C 278.773,330.23 274.44,334.23 269.5,337.5C 273.227,332.77 277.56,328.77 282.5,325.5 Z"/></g>
<g><path style="opacity:0.557" fill="#a3a3a3" d="M 124.5,335.5 C 126.163,337.438 126.829,339.772 126.5,342.5C 125.388,340.401 124.721,338.067 124.5,335.5 Z"/></g>
<g><path style="opacity:0.675" fill="#8c8c8c" d="M 151.5,331.5 C 147.37,336.131 143.037,340.631 138.5,345C 137.563,345.692 136.897,345.525 136.5,344.5C 141.224,339.771 146.224,335.437 151.5,331.5 Z"/></g>
<g><path style="opacity:0.427" fill="#aaaaaa" d="M 223.5,334.5 C 224.924,336.515 225.59,338.848 225.5,341.5C 224.076,339.485 223.41,337.152 223.5,334.5 Z"/></g>
<g><path style="opacity:0.647" fill="#a1a1a1" d="M 225.5,342.5 C 227.04,344.838 227.706,347.505 227.5,350.5C 226.232,348.095 225.565,345.428 225.5,342.5 Z"/></g>
<g><path style="opacity:0.008" fill="#c1c1c1" d="M 275.5,344.5 C 275.5,345.833 274.833,346.5 273.5,346.5C 273.833,345.5 274.5,344.833 275.5,344.5 Z"/></g>
<g><path style="opacity:0.553" fill="#a0a0a0" d="M 127.5,347.5 C 129.163,349.438 129.829,351.772 129.5,354.5C 128.388,352.401 127.721,350.067 127.5,347.5 Z"/></g>
<g><path style="opacity:0.176" fill="#c9c9c9" d="M 146.5,349.5 C 146.167,350.167 145.833,350.833 145.5,351.5C 144.243,350.377 144.576,349.711 146.5,349.5 Z"/></g>
<g><path style="opacity:0.643" fill="#8f8f8f" d="M 227.5,350.5 C 229.04,352.838 229.706,355.505 229.5,358.5C 227.96,356.162 227.294,353.495 227.5,350.5 Z"/></g>
<g><path style="opacity:0.012" fill="#c1c1c1" d="M 170.5,358.5 C 173.152,358.41 175.485,359.076 177.5,360.5C 174.848,360.59 172.515,359.924 170.5,358.5 Z"/></g>
<g><path style="opacity:0.102" fill="#cecece" d="M 142.5,360.5 C 141.596,361.209 141.263,362.209 141.5,363.5C 140.218,362.292 140.218,360.958 141.5,359.5C 142.107,359.624 142.44,359.957 142.5,360.5 Z"/></g>
<g><path style="opacity:0.741" fill="#7c7c7c" d="M 257.5,349.5 C 251.444,356.558 244.778,362.891 237.5,368.5C 243.556,361.442 250.222,355.109 257.5,349.5 Z"/></g>
<g><path style="opacity:0.741" fill="#949494" d="M 147.5,361.5 C 149.898,361.259 151.898,361.926 153.5,363.5C 151.214,363.405 149.214,362.738 147.5,361.5 Z"/></g>
<g><path style="opacity:0.596" fill="#a7a7a7" d="M 229.5,358.5 C 231.04,360.838 231.706,363.505 231.5,366.5C 230.232,364.095 229.565,361.428 229.5,358.5 Z"/></g>
<g><path style="opacity:0.024" fill="#c6c6c6" d="M 184.5,362.5 C 187.152,362.41 189.485,363.076 191.5,364.5C 188.848,364.59 186.515,363.924 184.5,362.5 Z"/></g>
<g><path style="opacity:0.745" fill="#8c8c8c" d="M 154.5,363.5 C 157.152,363.41 159.485,364.076 161.5,365.5C 158.848,365.59 156.515,364.924 154.5,363.5 Z"/></g>
<g><path style="opacity:0.027" fill="#bfbfbf" d="M 220.5,360.5 C 222.26,364.547 223.26,368.88 223.5,373.5C 221.901,373.768 220.568,373.434 219.5,372.5C 220.5,372.5 221.5,372.5 222.5,372.5C 221.514,368.557 220.848,364.557 220.5,360.5 Z"/></g>
<g><path style="opacity:0.02" fill="#c5c5c5" d="M 191.5,364.5 C 194.152,364.41 196.485,365.076 198.5,366.5C 195.848,366.59 193.515,365.924 191.5,364.5 Z"/></g>
<g><path style="opacity:0.753" fill="#8f8f8f" d="M 161.5,365.5 C 163.898,365.259 165.898,365.926 167.5,367.5C 165.214,367.405 163.214,366.738 161.5,365.5 Z"/></g>
<g><path style="opacity:0.02" fill="#c6c6c6" d="M 198.5,366.5 C 201.152,366.41 203.485,367.076 205.5,368.5C 202.848,368.59 200.515,367.924 198.5,366.5 Z"/></g>
<g><path style="opacity:0.675" fill="#989898" d="M 141.5,364.5 C 143.04,366.838 143.706,369.505 143.5,372.5C 142.232,370.095 141.565,367.428 141.5,364.5 Z"/></g>
<g><path style="opacity:0.765" fill="#878787" d="M 168.5,367.5 C 171.152,367.41 173.485,368.076 175.5,369.5C 172.848,369.59 170.515,368.924 168.5,367.5 Z"/></g>
<g><path style="opacity:0.008" fill="#c8c8c8" d="M 205.5,368.5 C 208.152,368.41 210.485,369.076 212.5,370.5C 209.848,370.59 207.515,369.924 205.5,368.5 Z"/></g>
<g><path style="opacity:0.784" fill="#838383" d="M 175.5,369.5 C 178.152,369.41 180.485,370.076 182.5,371.5C 179.848,371.59 177.515,370.924 175.5,369.5 Z"/></g>
<g><path style="opacity:0.008" fill="#c8c8c8" d="M 212.5,370.5 C 215.152,370.41 217.485,371.076 219.5,372.5C 216.848,372.59 214.515,371.924 212.5,370.5 Z"/></g>
<g><path style="opacity:0.796" fill="#929292" d="M 231.5,366.5 C 232.065,368.42 233.065,370.087 234.5,371.5C 233.811,372.774 232.977,372.774 232,371.5C 231.506,369.866 231.34,368.199 231.5,366.5 Z"/></g>
<g><path style="opacity:0.008" fill="#bfbfbf" d="M 249.5,369.5 C 249.5,370.833 248.833,371.5 247.5,371.5C 247.833,370.5 248.5,369.833 249.5,369.5 Z"/></g>
<g><path style="opacity:0.8" fill="#818181" d="M 182.5,371.5 C 185.152,371.41 187.485,372.076 189.5,373.5C 186.848,373.59 184.515,372.924 182.5,371.5 Z"/></g>
<g><path style="opacity:0.839" fill="#7f7f7f" d="M 189.5,373.5 C 192.152,373.41 194.485,374.076 196.5,375.5C 193.848,375.59 191.515,374.924 189.5,373.5 Z"/></g>
<g><path style="opacity:0.647" fill="#9e9e9e" d="M 143.5,372.5 C 145.04,374.838 145.706,377.505 145.5,380.5C 144.232,378.095 143.565,375.428 143.5,372.5 Z"/></g>
<g><path style="opacity:0.694" fill="#9f9f9f" d="M 199.5,376.5 C 201.898,376.259 203.898,376.926 205.5,378.5C 203.214,378.405 201.214,377.738 199.5,376.5 Z"/></g>
<g><path style="opacity:0.918" fill="#7f7f7f" d="M 206.5,378.5 C 209.01,378.054 211.01,378.72 212.5,380.5C 210.214,380.405 208.214,379.738 206.5,378.5 Z"/></g>
<g><path style="opacity:0.937" fill="#797979" d="M 213.5,380.5 C 216.01,380.054 218.01,380.72 219.5,382.5C 217.214,382.405 215.214,381.738 213.5,380.5 Z"/></g>
<g><path style="opacity:0.627" fill="#a2a2a2" d="M 145.5,380.5 C 147.04,382.838 147.706,385.505 147.5,388.5C 146.232,386.095 145.565,383.428 145.5,380.5 Z"/></g>
<g><path style="opacity:0.718" fill="#979797" d="M 220.5,382.5 C 223.015,383.86 222.682,384.86 219.5,385.5C 220.11,384.609 220.443,383.609 220.5,382.5 Z"/></g>
<g><path style="opacity:0.835" fill="#666666" d="M 219.5,385.5 C 218.5,388.5 216.5,390.5 213.5,391.5C 215.167,389.167 217.167,387.167 219.5,385.5 Z"/></g>
<g><path style="opacity:0.027" fill="#bebebe" d="M 138.5,390.5 C 139.768,392.905 140.435,395.572 140.5,398.5C 138.96,396.162 138.294,393.495 138.5,390.5 Z"/></g>
<g><path style="opacity:0.02" fill="#d4d4d4" d="M 225.5,393.5 C 224.415,395.587 222.749,396.92 220.5,397.5C 221.585,395.413 223.251,394.08 225.5,393.5 Z"/></g>
<g><path style="opacity:0.4" fill="#b8b8b8" d="M 206.5,398.5 C 206.167,399.5 205.5,400.167 204.5,400.5C 204.5,399.167 205.167,398.5 206.5,398.5 Z"/></g>
<g><path style="opacity:0.098" fill="#c3c3c3" d="M 140.5,399.5 C 141.924,401.515 142.59,403.848 142.5,406.5C 141.076,404.485 140.41,402.152 140.5,399.5 Z"/></g>
<g><path style="opacity:0.502" fill="#a8a8a8" d="M 142.5,408.5 C 144.074,410.102 144.741,412.102 144.5,414.5C 143.262,412.786 142.595,410.786 142.5,408.5 Z"/></g>
<g><path style="opacity:0.584" fill="#919191" d="M 151.5,404.5 C 152.768,406.905 153.435,409.572 153.5,412.5C 151.96,410.162 151.294,407.495 151.5,404.5 Z"/></g>
<g><path style="opacity:0.745" fill="#767676" d="M 202.5,402.5 C 197.443,408.559 191.776,413.893 185.5,418.5C 190.557,412.441 196.224,407.107 202.5,402.5 Z"/></g>
<g><path style="opacity:0.561" fill="#979797" d="M 153.5,412.5 C 154.768,414.905 155.435,417.572 155.5,420.5C 153.96,418.162 153.294,415.495 153.5,412.5 Z"/></g>
<g><path style="opacity:0.016" fill="#bfbfbf" d="M 197.5,419.5 C 197.5,420.833 196.833,421.5 195.5,421.5C 195.833,420.5 196.5,419.833 197.5,419.5 Z"/></g>
<g><path style="opacity:0.008" fill="#c9c9c9" d="M 195.5,421.5 C 195.5,422.833 194.833,423.5 193.5,423.5C 193.833,422.5 194.5,421.833 195.5,421.5 Z"/></g>
<g><path style="opacity:0.718" fill="#8a8a8a" d="M 156.5,425.5 C 158.04,427.838 158.706,430.505 158.5,433.5C 157.232,431.095 156.565,428.428 156.5,425.5 Z"/></g>
<g><path style="opacity:0.729" fill="#8e8e8e" d="M 177.5,426.5 C 173.773,431.23 169.44,435.23 164.5,438.5C 168.227,433.77 172.56,429.77 177.5,426.5 Z"/></g>
<g><path style="opacity:0.698" fill="#8e8e8e" d="M 158.5,433.5 C 160.04,435.838 160.706,438.505 160.5,441.5C 159.232,439.095 158.565,436.428 158.5,433.5 Z"/></g>
<g><path style="opacity:0.008" fill="#d5d5d5" d="M 171.5,445.5 C 171.027,446.906 170.027,447.573 168.5,447.5C 168.973,446.094 169.973,445.427 171.5,445.5 Z"/></g>
<g><path style="opacity:0.902" fill="#757575" d="M 154.5,454.5 C 156.833,454.5 159.167,454.5 161.5,454.5C 159.167,457.167 156.833,457.167 154.5,454.5 Z"/></g>
</svg>
